<svg width="77" height="60" viewBox="0 0 77 60" fill="none" xmlns="http://www.w3.org/2000/svg">
<mask id="path-1-inside-1_240_132" fill="white">
<path d="M75.9639 21.429C72.0818 21.4464 57.9157 22.254 47.3777 32.5449C42.9502 36.5132 40.2445 41.0225 38.5 45.2492C36.7555 41.0225 34.0498 36.5132 29.6223 32.5449C19.0843 22.254 4.91815 21.4464 1.03607 21.429C0.446539 21.4263 -0.00530025 21.8843 4.69695e-05 22.4763C0.0307935 26.2155 0.954525 39.3698 11.8669 49.1679C23.0987 60.1258 34.2222 59.9999 38.5 59.9999C42.7778 59.9999 53.8986 60.1272 65.1331 49.1679C76.0468 39.3685 76.9692 26.2155 77 22.4763C77.0053 21.8843 76.5535 21.4263 75.9639 21.429ZM38.4973 36.2413C40.2111 33.7168 42.1869 31.4494 44.3913 29.4753C46.9433 26.9829 49.6824 25.0155 52.4469 23.4245C50.2492 13.9826 45.5329 5.60551 39.516 0.359594C38.9665 -0.119865 38.0428 -0.119865 37.4921 0.359594C31.4778 5.60149 26.7615 13.9706 24.5598 23.4044C27.2829 24.9713 29.9739 26.9053 32.4764 29.3494C34.7543 31.3942 36.776 33.7084 38.4973 36.2413Z"/>
</mask>
<path d="M75.9639 21.429L75.9774 24.4289L75.9776 24.4289L75.9639 21.429ZM47.3777 32.5449L49.38 34.7789L49.4278 34.7361L49.4737 34.6912L47.3777 32.5449ZM38.5 45.2492L35.7269 46.3938L38.5 53.1125L41.2731 46.3938L38.5 45.2492ZM29.6223 32.5449L27.5263 34.6912L27.5722 34.7361L27.62 34.7789L29.6223 32.5449ZM1.03607 21.429L1.02244 24.4289L1.02262 24.4289L1.03607 21.429ZM4.69695e-05 22.4763L2.99995 22.4516L2.99992 22.4492L4.69695e-05 22.4763ZM11.8669 49.1679L13.9618 47.0206L13.9174 46.9772L13.8711 46.9357L11.8669 49.1679ZM65.1331 49.1679L63.1288 46.9357L63.0827 46.9771L63.0383 47.0205L65.1331 49.1679ZM77 22.4763L74.0001 22.4492L74.0001 22.4516L77 22.4763ZM38.4973 36.2413L36.0161 37.9275L38.4987 41.5806L40.9794 37.9263L38.4973 36.2413ZM44.3913 29.4753L46.3927 31.7102L46.441 31.6669L46.4874 31.6215L44.3913 29.4753ZM52.4469 23.4245L53.9433 26.0246L55.8737 24.9136L55.3688 22.7444L52.4469 23.4245ZM39.516 0.359594L37.5435 2.61995L37.5445 2.62084L39.516 0.359594ZM37.4921 0.359594L35.5223 -1.90314L35.5209 -1.90197L37.4921 0.359594ZM24.5598 23.4044L21.6383 22.7226L21.1318 24.893L23.0635 26.0046L24.5598 23.4044ZM32.4764 29.3494L30.3802 31.4956L30.4254 31.5397L30.4723 31.5819L32.4764 29.3494ZM75.9505 18.429C71.8665 18.4473 56.6851 19.2626 45.2817 30.3986L49.4737 34.6912C59.1464 25.2454 72.2972 24.4455 75.9774 24.4289L75.9505 18.429ZM45.3754 30.3109C40.5446 34.6407 37.6048 39.5549 35.7269 44.1047L41.2731 46.3938C42.8843 42.4901 45.3559 38.3857 49.38 34.7789L45.3754 30.3109ZM41.2731 44.1047C39.3952 39.5549 36.4554 34.6407 31.6246 30.3109L27.62 34.7789C31.6441 38.3857 34.1157 42.4901 35.7269 46.3938L41.2731 44.1047ZM31.7183 30.3986C20.3149 19.2626 5.13352 18.4473 1.04952 18.429L1.02262 24.4289C4.70278 24.4455 17.8536 25.2454 27.5263 34.6912L31.7183 30.3986ZM1.0497 18.429C-1.23303 18.4186 -3.0201 20.2592 -2.99983 22.5034L2.99992 22.4492C3.0095 23.5094 2.12611 24.434 1.02244 24.4289L1.0497 18.429ZM-2.99985 22.501C-2.96675 26.5267 -1.99705 40.7515 9.86256 51.4001L13.8711 46.9357C3.9061 37.9882 3.02834 25.9044 2.99995 22.4516L-2.99985 22.501ZM9.77188 51.3153C21.858 63.1066 33.9788 62.9999 38.5 62.9999V56.9999C34.4656 56.9999 24.3394 57.145 13.9618 47.0206L9.77188 51.3153ZM38.5 62.9999C43.0212 62.9999 55.1393 63.1079 67.228 51.3154L63.0383 47.0205C52.658 57.1464 42.5344 56.9999 38.5 56.9999V62.9999ZM67.1375 51.4001C78.9984 40.7501 79.9668 26.5266 79.9998 22.501L74.0001 22.4516C73.9717 25.9045 73.0952 37.9869 63.1288 46.9357L67.1375 51.4001ZM79.9998 22.5034C80.0201 20.2592 78.233 18.4186 75.9503 18.429L75.9776 24.4289C74.8739 24.434 73.9905 23.5094 74.0001 22.4492L79.9998 22.5034ZM40.9794 37.9263C42.56 35.598 44.3756 33.5165 46.3927 31.7102L42.3899 27.2405C39.9983 29.3823 37.8623 31.8355 36.0152 34.5563L40.9794 37.9263ZM46.4874 31.6215C48.8342 29.3296 51.3642 27.5089 53.9433 26.0246L50.9504 20.8244C48.0005 22.5221 45.0523 24.6363 42.2952 27.3291L46.4874 31.6215ZM55.3688 22.7444C53.0579 12.8162 48.0694 3.83685 41.4875 -1.90166L37.5445 2.62084C42.9965 7.37417 47.4405 15.149 49.525 24.1046L55.3688 22.7444ZM41.4885 -1.90076C39.8076 -3.36761 37.2009 -3.36442 35.5223 -1.90314L39.4618 2.62232C39.1163 2.92316 38.7543 3 38.5045 3C38.2549 3 37.8909 2.92316 37.5435 2.61995L41.4885 -1.90076ZM35.5209 -1.90197C28.942 3.83203 23.9535 12.8028 21.6383 22.7226L27.4813 24.0862C29.5696 15.1384 34.0135 7.37096 39.4632 2.62116L35.5209 -1.90197ZM23.0635 26.0046C25.6011 27.4648 28.0829 29.2519 30.3802 31.4956L34.5725 27.2032C31.8648 24.5586 28.9647 22.4779 26.0561 20.8042L23.0635 26.0046ZM30.4723 31.5819C32.5696 33.4645 34.4311 35.5953 36.0161 37.9275L40.9786 34.5551C39.121 31.8216 36.9389 29.3239 34.4804 27.1169L30.4723 31.5819Z" fill="#154734" mask="url(#path-1-inside-1_240_132)"/>
</svg>
