<svg width="45" height="60" viewBox="0 0 45 60" fill="none" xmlns="http://www.w3.org/2000/svg">
<path d="M45 22.0004C45 9.80026 34.875 0 22.5 0C10.1249 0 0 9.90013 0 22.0004C0 30.4005 5.21619 37.8009 12.2729 41.5L10.2271 60L22.5 52.0004L34.7729 60L32.7271 41.5C39.8859 37.7999 45 30.4005 45 22.0004ZM22.5 42.0004C11.1484 42.0004 2.04583 33.0001 2.04583 22.0004C2.04583 10.9008 11.2505 2.0004 22.5 2.0004C33.7495 2.0004 42.9542 11.0007 42.9542 22.0004C42.9635 24.6294 42.4408 27.2342 41.4162 29.6648C40.3915 32.0954 38.8853 34.3038 36.9841 36.1628C35.0828 38.0218 32.8243 39.4947 30.3385 40.4965C27.8527 41.4984 25.1887 42.0095 22.5 42.0004ZM31.7047 13.8001L34.7729 16.8002L20.9659 30.3006L13.2953 22.8004L16.3635 19.8003L20.9659 24.3004L31.7047 13.8001Z" fill="#154734"/>
</svg>
