<svg width="96" height="106" viewBox="0 0 96 106" fill="none" xmlns="http://www.w3.org/2000/svg">
<mask id="path-1-outside-1_333_90" maskUnits="userSpaceOnUse" x="0" y="83.9678" width="96" height="10" fill="black">
<rect fill="white" y="83.9678" width="96" height="10"/>
<path d="M0.97875 92.889C1.0575 92.889 1.09125 92.8553 1.09125 92.7765V85.3403C1.09125 85.2728 1.06875 85.239 1.00125 85.239H0.5175C0.4725 85.239 0.4725 85.1603 0.5175 85.1603H2.1375C2.19375 85.1603 2.19375 85.239 2.1375 85.239H1.665C1.5975 85.239 1.56375 85.2728 1.56375 85.3403V92.7765C1.56375 92.8553 1.5975 92.889 1.67625 92.889H4.3875C5.0175 92.8665 5.45625 92.4053 5.45625 91.6403V90.7515H5.535V92.9678H0.48375C0.43875 92.9678 0.43875 92.889 0.48375 92.889H0.97875ZM11.7389 88.5128H9.78144C9.72519 88.5128 9.70269 88.5353 9.70269 88.5915V92.8103C9.70269 92.8665 9.72519 92.889 9.78144 92.889H12.8189C13.2577 92.889 13.7752 92.6303 13.7752 91.989V91.674H13.8539V92.9678H8.62269C8.58894 92.9678 8.57769 92.9453 8.57769 92.934C8.57769 92.9115 8.60019 92.889 8.63394 92.889H9.15144C9.19644 92.889 9.23019 92.8665 9.23019 92.8103V85.3178C9.23019 85.2615 9.20769 85.239 9.15144 85.239H8.62269C8.58894 85.239 8.57769 85.2165 8.57769 85.2053C8.57769 85.1828 8.58894 85.1603 8.62269 85.1603H13.4039V86.4765H13.3252V86.2178C13.3252 85.5428 13.0664 85.239 12.2677 85.239H9.78144C9.72519 85.239 9.70269 85.2615 9.70269 85.3178V88.3553C9.70269 88.4115 9.72519 88.434 9.78144 88.434H11.5477C11.9864 88.434 12.4477 88.3215 12.4477 87.849V87.6578H12.5264V89.2778H12.4477V89.0753C12.4477 88.704 12.0989 88.5128 11.7389 88.5128ZM18.9498 92.9678C18.8823 92.9678 18.8823 92.889 18.9498 92.889H19.3548C19.4336 92.889 19.4673 92.8553 19.4673 92.7765V85.3515C19.4673 85.2728 19.4336 85.239 19.3548 85.239H17.6561C17.1048 85.2503 16.8461 85.6215 16.8461 86.0378V86.4878H16.7673V85.1603H22.7186V86.4878H22.6398V86.0265C22.6398 85.6103 22.3698 85.239 21.8073 85.239H20.0523C19.9736 85.239 19.9398 85.2728 19.9398 85.3515V92.7765C19.9398 92.8553 19.9736 92.889 20.0523 92.889H20.4911C20.5473 92.889 20.5473 92.9678 20.4911 92.9678H18.9498ZM27.3885 92.9678H25.7235C25.656 92.9678 25.656 92.889 25.7235 92.889H26.2522C26.3085 92.889 26.331 92.8665 26.331 92.8103V85.3178C26.331 85.2615 26.3085 85.239 26.2522 85.239H25.7685C25.7122 85.239 25.7122 85.1603 25.7685 85.1603H27.3772C27.4222 85.1603 27.4222 85.239 27.3772 85.239H26.871C26.8147 85.239 26.7922 85.2615 26.7922 85.3178V92.8103C26.7922 92.8665 26.8147 92.889 26.871 92.889H27.3885C27.4447 92.889 27.4447 92.9678 27.3885 92.9678ZM30.5995 92.9678C30.5432 92.9678 30.5432 92.889 30.5995 92.889H31.1057C31.162 92.889 31.1845 92.8665 31.1845 92.8103V85.3178C31.1845 85.2615 31.162 85.239 31.1057 85.239H30.5995C30.5432 85.239 30.5432 85.1603 30.5995 85.1603H32.242C32.287 85.1603 32.287 85.239 32.242 85.239H31.7357C31.6795 85.239 31.657 85.2615 31.657 85.3178V88.5128C31.657 88.569 31.6795 88.5915 31.7357 88.5915H35.6507C35.707 88.5915 35.7295 88.569 35.7295 88.5128V85.3178C35.7295 85.2615 35.707 85.239 35.6507 85.239H35.1332C35.077 85.239 35.077 85.1603 35.1332 85.1603H36.7757C36.8207 85.1603 36.8207 85.239 36.7757 85.239H36.2807C36.2245 85.239 36.202 85.2615 36.202 85.3178V92.8103C36.202 92.8665 36.2245 92.889 36.2807 92.889H36.7757C36.8207 92.889 36.8207 92.9678 36.7757 92.9678H35.1332C35.077 92.9678 35.077 92.889 35.1332 92.889H35.6507C35.707 92.889 35.7295 92.8665 35.7295 92.8103V88.749C35.7295 88.6928 35.707 88.6703 35.6507 88.6703H31.7357C31.6795 88.6703 31.657 88.6928 31.657 88.749V92.8103C31.657 92.8665 31.6795 92.889 31.7357 92.889H32.242C32.287 92.889 32.287 92.9678 32.242 92.9678H30.5995ZM44.8559 92.9678C44.7884 92.9678 44.7884 92.889 44.8559 92.889H45.3846C45.4296 92.889 45.4634 92.8665 45.4634 92.8103V85.3178C45.4634 85.2615 45.4409 85.239 45.3846 85.239H44.8559C44.7996 85.239 44.7884 85.1603 44.8559 85.1603H47.5559C48.6584 85.1715 49.9521 85.689 49.9521 86.9378C49.9521 87.894 48.9396 88.569 47.9609 88.704L47.9159 88.7378C49.1759 88.7153 50.5371 89.4353 50.5371 90.7965C50.5371 92.2478 49.1534 92.9678 47.8034 92.9678H44.8559ZM47.4434 88.7715H46.0146C45.9584 88.7715 45.9359 88.794 45.9359 88.8503V92.8103C45.9359 92.8665 45.9584 92.889 46.0146 92.889H47.8034C49.0184 92.889 50.0196 92.2928 50.0196 90.7965C50.0196 89.199 48.9396 88.7715 47.4434 88.7715ZM49.4796 86.9378C49.4796 85.6553 48.5234 85.239 47.5221 85.239H46.0146C45.9584 85.239 45.9359 85.2615 45.9359 85.3178V88.614C45.9359 88.6703 45.9584 88.6928 46.0146 88.6928H47.3309C48.6471 88.6928 49.4796 88.1865 49.4796 86.9378ZM56.7477 88.5128H54.7902C54.734 88.5128 54.7115 88.5353 54.7115 88.5915V92.8103C54.7115 92.8665 54.734 92.889 54.7902 92.889H57.8277C58.2665 92.889 58.784 92.6303 58.784 91.989V91.674H58.8627V92.9678H53.6315C53.5977 92.9678 53.5865 92.9453 53.5865 92.934C53.5865 92.9115 53.609 92.889 53.6427 92.889H54.1602C54.2052 92.889 54.239 92.8665 54.239 92.8103V85.3178C54.239 85.2615 54.2165 85.239 54.1602 85.239H53.6315C53.5977 85.239 53.5865 85.2165 53.5865 85.2053C53.5865 85.1828 53.5977 85.1603 53.6315 85.1603H58.4127V86.4765H58.334V86.2178C58.334 85.5428 58.0752 85.239 57.2765 85.239H54.7902C54.734 85.239 54.7115 85.2615 54.7115 85.3178V88.3553C54.7115 88.4115 54.734 88.434 54.7902 88.434H56.5565C56.9952 88.434 57.4565 88.3215 57.4565 87.849V87.6578H57.5352V89.2778H57.4565V89.0753C57.4565 88.704 57.1077 88.5128 56.7477 88.5128ZM64.321 85.239C64.2872 85.239 64.276 85.2165 64.276 85.2053C64.276 85.1828 64.2872 85.1603 64.321 85.1603H65.311L68.2022 92.889H68.8097C68.8322 92.889 68.8547 92.9115 68.8547 92.934C68.8547 92.9453 68.8322 92.9678 68.8097 92.9678H67.0997C67.066 92.9678 67.0547 92.9453 67.0547 92.934C67.0547 92.9115 67.066 92.889 67.0997 92.889H67.7297L66.5485 89.7278H63.2635L62.1047 92.889H62.7235C62.746 92.889 62.7685 92.9115 62.7685 92.934C62.7685 92.9453 62.746 92.9678 62.7235 92.9678H61.4297C61.396 92.9678 61.3847 92.9453 61.3847 92.934C61.3847 92.9115 61.396 92.889 61.4297 92.889H62.0147L64.8047 85.239H64.321ZM64.8722 85.284L63.286 89.649H66.5147L64.8722 85.284ZM77.0743 85.3515V90.2228C77.0743 92.349 76.0393 93.114 74.5543 93.114C73.0243 93.114 71.7755 92.3715 71.7755 90.1665V85.3515C71.7755 85.2728 71.7418 85.239 71.663 85.239H71.3255C71.2693 85.239 71.258 85.1715 71.3255 85.1603H72.6755C72.7318 85.1603 72.7318 85.239 72.6755 85.239H72.3605C72.2818 85.239 72.248 85.2728 72.248 85.3515V90.2678C72.248 92.6078 73.3505 93.0465 74.5543 93.0465C75.9493 93.0465 76.9955 92.3603 76.9955 90.2228V85.3515C76.9955 85.2728 76.9618 85.239 76.883 85.239H76.4668C76.3993 85.239 76.3993 85.1603 76.4668 85.1603H77.6143C77.6705 85.1603 77.6705 85.239 77.6143 85.239H77.1868C77.108 85.239 77.0743 85.2728 77.0743 85.3515ZM82.6639 92.9678C82.5964 92.9678 82.5964 92.889 82.6639 92.889H83.0689C83.1477 92.889 83.1814 92.8553 83.1814 92.7765V85.3515C83.1814 85.2728 83.1477 85.239 83.0689 85.239H81.3702C80.8189 85.2503 80.5602 85.6215 80.5602 86.0378V86.4878H80.4814V85.1603H86.4327V86.4878H86.3539V86.0265C86.3539 85.6103 86.0839 85.239 85.5214 85.239H83.7664C83.6877 85.239 83.6539 85.2728 83.6539 85.3515V92.7765C83.6539 92.8553 83.6877 92.889 83.7664 92.889H84.2052C84.2614 92.889 84.2614 92.9678 84.2052 92.9678H82.6639ZM92.0813 92.7765V89.4015L89.6963 85.239H89.1001C89.0551 85.239 89.0551 85.1603 89.1001 85.1603H90.7201C90.7763 85.1603 90.7763 85.239 90.7201 85.239H90.1913L92.5088 89.2103L94.7701 85.239H94.1401C94.0838 85.239 94.0726 85.1603 94.1401 85.1603H95.5801C95.6251 85.1603 95.6251 85.239 95.5801 85.239H94.8713L92.5426 89.3003V92.7765C92.5426 92.8553 92.5763 92.889 92.6551 92.889H93.0826C93.1388 92.889 93.1388 92.9678 93.0826 92.9678H91.5413C91.4851 92.9678 91.4851 92.889 91.5413 92.889H91.9688C92.0476 92.889 92.0813 92.8553 92.0813 92.7765Z"/>
</mask>
<path d="M0.97875 92.889C1.0575 92.889 1.09125 92.8553 1.09125 92.7765V85.3403C1.09125 85.2728 1.06875 85.239 1.00125 85.239H0.5175C0.4725 85.239 0.4725 85.1603 0.5175 85.1603H2.1375C2.19375 85.1603 2.19375 85.239 2.1375 85.239H1.665C1.5975 85.239 1.56375 85.2728 1.56375 85.3403V92.7765C1.56375 92.8553 1.5975 92.889 1.67625 92.889H4.3875C5.0175 92.8665 5.45625 92.4053 5.45625 91.6403V90.7515H5.535V92.9678H0.48375C0.43875 92.9678 0.43875 92.889 0.48375 92.889H0.97875ZM11.7389 88.5128H9.78144C9.72519 88.5128 9.70269 88.5353 9.70269 88.5915V92.8103C9.70269 92.8665 9.72519 92.889 9.78144 92.889H12.8189C13.2577 92.889 13.7752 92.6303 13.7752 91.989V91.674H13.8539V92.9678H8.62269C8.58894 92.9678 8.57769 92.9453 8.57769 92.934C8.57769 92.9115 8.60019 92.889 8.63394 92.889H9.15144C9.19644 92.889 9.23019 92.8665 9.23019 92.8103V85.3178C9.23019 85.2615 9.20769 85.239 9.15144 85.239H8.62269C8.58894 85.239 8.57769 85.2165 8.57769 85.2053C8.57769 85.1828 8.58894 85.1603 8.62269 85.1603H13.4039V86.4765H13.3252V86.2178C13.3252 85.5428 13.0664 85.239 12.2677 85.239H9.78144C9.72519 85.239 9.70269 85.2615 9.70269 85.3178V88.3553C9.70269 88.4115 9.72519 88.434 9.78144 88.434H11.5477C11.9864 88.434 12.4477 88.3215 12.4477 87.849V87.6578H12.5264V89.2778H12.4477V89.0753C12.4477 88.704 12.0989 88.5128 11.7389 88.5128ZM18.9498 92.9678C18.8823 92.9678 18.8823 92.889 18.9498 92.889H19.3548C19.4336 92.889 19.4673 92.8553 19.4673 92.7765V85.3515C19.4673 85.2728 19.4336 85.239 19.3548 85.239H17.6561C17.1048 85.2503 16.8461 85.6215 16.8461 86.0378V86.4878H16.7673V85.1603H22.7186V86.4878H22.6398V86.0265C22.6398 85.6103 22.3698 85.239 21.8073 85.239H20.0523C19.9736 85.239 19.9398 85.2728 19.9398 85.3515V92.7765C19.9398 92.8553 19.9736 92.889 20.0523 92.889H20.4911C20.5473 92.889 20.5473 92.9678 20.4911 92.9678H18.9498ZM27.3885 92.9678H25.7235C25.656 92.9678 25.656 92.889 25.7235 92.889H26.2522C26.3085 92.889 26.331 92.8665 26.331 92.8103V85.3178C26.331 85.2615 26.3085 85.239 26.2522 85.239H25.7685C25.7122 85.239 25.7122 85.1603 25.7685 85.1603H27.3772C27.4222 85.1603 27.4222 85.239 27.3772 85.239H26.871C26.8147 85.239 26.7922 85.2615 26.7922 85.3178V92.8103C26.7922 92.8665 26.8147 92.889 26.871 92.889H27.3885C27.4447 92.889 27.4447 92.9678 27.3885 92.9678ZM30.5995 92.9678C30.5432 92.9678 30.5432 92.889 30.5995 92.889H31.1057C31.162 92.889 31.1845 92.8665 31.1845 92.8103V85.3178C31.1845 85.2615 31.162 85.239 31.1057 85.239H30.5995C30.5432 85.239 30.5432 85.1603 30.5995 85.1603H32.242C32.287 85.1603 32.287 85.239 32.242 85.239H31.7357C31.6795 85.239 31.657 85.2615 31.657 85.3178V88.5128C31.657 88.569 31.6795 88.5915 31.7357 88.5915H35.6507C35.707 88.5915 35.7295 88.569 35.7295 88.5128V85.3178C35.7295 85.2615 35.707 85.239 35.6507 85.239H35.1332C35.077 85.239 35.077 85.1603 35.1332 85.1603H36.7757C36.8207 85.1603 36.8207 85.239 36.7757 85.239H36.2807C36.2245 85.239 36.202 85.2615 36.202 85.3178V92.8103C36.202 92.8665 36.2245 92.889 36.2807 92.889H36.7757C36.8207 92.889 36.8207 92.9678 36.7757 92.9678H35.1332C35.077 92.9678 35.077 92.889 35.1332 92.889H35.6507C35.707 92.889 35.7295 92.8665 35.7295 92.8103V88.749C35.7295 88.6928 35.707 88.6703 35.6507 88.6703H31.7357C31.6795 88.6703 31.657 88.6928 31.657 88.749V92.8103C31.657 92.8665 31.6795 92.889 31.7357 92.889H32.242C32.287 92.889 32.287 92.9678 32.242 92.9678H30.5995ZM44.8559 92.9678C44.7884 92.9678 44.7884 92.889 44.8559 92.889H45.3846C45.4296 92.889 45.4634 92.8665 45.4634 92.8103V85.3178C45.4634 85.2615 45.4409 85.239 45.3846 85.239H44.8559C44.7996 85.239 44.7884 85.1603 44.8559 85.1603H47.5559C48.6584 85.1715 49.9521 85.689 49.9521 86.9378C49.9521 87.894 48.9396 88.569 47.9609 88.704L47.9159 88.7378C49.1759 88.7153 50.5371 89.4353 50.5371 90.7965C50.5371 92.2478 49.1534 92.9678 47.8034 92.9678H44.8559ZM47.4434 88.7715H46.0146C45.9584 88.7715 45.9359 88.794 45.9359 88.8503V92.8103C45.9359 92.8665 45.9584 92.889 46.0146 92.889H47.8034C49.0184 92.889 50.0196 92.2928 50.0196 90.7965C50.0196 89.199 48.9396 88.7715 47.4434 88.7715ZM49.4796 86.9378C49.4796 85.6553 48.5234 85.239 47.5221 85.239H46.0146C45.9584 85.239 45.9359 85.2615 45.9359 85.3178V88.614C45.9359 88.6703 45.9584 88.6928 46.0146 88.6928H47.3309C48.6471 88.6928 49.4796 88.1865 49.4796 86.9378ZM56.7477 88.5128H54.7902C54.734 88.5128 54.7115 88.5353 54.7115 88.5915V92.8103C54.7115 92.8665 54.734 92.889 54.7902 92.889H57.8277C58.2665 92.889 58.784 92.6303 58.784 91.989V91.674H58.8627V92.9678H53.6315C53.5977 92.9678 53.5865 92.9453 53.5865 92.934C53.5865 92.9115 53.609 92.889 53.6427 92.889H54.1602C54.2052 92.889 54.239 92.8665 54.239 92.8103V85.3178C54.239 85.2615 54.2165 85.239 54.1602 85.239H53.6315C53.5977 85.239 53.5865 85.2165 53.5865 85.2053C53.5865 85.1828 53.5977 85.1603 53.6315 85.1603H58.4127V86.4765H58.334V86.2178C58.334 85.5428 58.0752 85.239 57.2765 85.239H54.7902C54.734 85.239 54.7115 85.2615 54.7115 85.3178V88.3553C54.7115 88.4115 54.734 88.434 54.7902 88.434H56.5565C56.9952 88.434 57.4565 88.3215 57.4565 87.849V87.6578H57.5352V89.2778H57.4565V89.0753C57.4565 88.704 57.1077 88.5128 56.7477 88.5128ZM64.321 85.239C64.2872 85.239 64.276 85.2165 64.276 85.2053C64.276 85.1828 64.2872 85.1603 64.321 85.1603H65.311L68.2022 92.889H68.8097C68.8322 92.889 68.8547 92.9115 68.8547 92.934C68.8547 92.9453 68.8322 92.9678 68.8097 92.9678H67.0997C67.066 92.9678 67.0547 92.9453 67.0547 92.934C67.0547 92.9115 67.066 92.889 67.0997 92.889H67.7297L66.5485 89.7278H63.2635L62.1047 92.889H62.7235C62.746 92.889 62.7685 92.9115 62.7685 92.934C62.7685 92.9453 62.746 92.9678 62.7235 92.9678H61.4297C61.396 92.9678 61.3847 92.9453 61.3847 92.934C61.3847 92.9115 61.396 92.889 61.4297 92.889H62.0147L64.8047 85.239H64.321ZM64.8722 85.284L63.286 89.649H66.5147L64.8722 85.284ZM77.0743 85.3515V90.2228C77.0743 92.349 76.0393 93.114 74.5543 93.114C73.0243 93.114 71.7755 92.3715 71.7755 90.1665V85.3515C71.7755 85.2728 71.7418 85.239 71.663 85.239H71.3255C71.2693 85.239 71.258 85.1715 71.3255 85.1603H72.6755C72.7318 85.1603 72.7318 85.239 72.6755 85.239H72.3605C72.2818 85.239 72.248 85.2728 72.248 85.3515V90.2678C72.248 92.6078 73.3505 93.0465 74.5543 93.0465C75.9493 93.0465 76.9955 92.3603 76.9955 90.2228V85.3515C76.9955 85.2728 76.9618 85.239 76.883 85.239H76.4668C76.3993 85.239 76.3993 85.1603 76.4668 85.1603H77.6143C77.6705 85.1603 77.6705 85.239 77.6143 85.239H77.1868C77.108 85.239 77.0743 85.2728 77.0743 85.3515ZM82.6639 92.9678C82.5964 92.9678 82.5964 92.889 82.6639 92.889H83.0689C83.1477 92.889 83.1814 92.8553 83.1814 92.7765V85.3515C83.1814 85.2728 83.1477 85.239 83.0689 85.239H81.3702C80.8189 85.2503 80.5602 85.6215 80.5602 86.0378V86.4878H80.4814V85.1603H86.4327V86.4878H86.3539V86.0265C86.3539 85.6103 86.0839 85.239 85.5214 85.239H83.7664C83.6877 85.239 83.6539 85.2728 83.6539 85.3515V92.7765C83.6539 92.8553 83.6877 92.889 83.7664 92.889H84.2052C84.2614 92.889 84.2614 92.9678 84.2052 92.9678H82.6639ZM92.0813 92.7765V89.4015L89.6963 85.239H89.1001C89.0551 85.239 89.0551 85.1603 89.1001 85.1603H90.7201C90.7763 85.1603 90.7763 85.239 90.7201 85.239H90.1913L92.5088 89.2103L94.7701 85.239H94.1401C94.0838 85.239 94.0726 85.1603 94.1401 85.1603H95.5801C95.6251 85.1603 95.6251 85.239 95.5801 85.239H94.8713L92.5426 89.3003V92.7765C92.5426 92.8553 92.5763 92.889 92.6551 92.889H93.0826C93.1388 92.889 93.1388 92.9678 93.0826 92.9678H91.5413C91.4851 92.9678 91.4851 92.889 91.5413 92.889H91.9688C92.0476 92.889 92.0813 92.8553 92.0813 92.7765Z" fill="white"/>
<path d="M4.3875 92.889L4.3875 93.1142L4.39553 93.1139L4.3875 92.889ZM5.45625 90.7515V90.5265H5.23125V90.7515H5.45625ZM5.535 90.7515H5.76V90.5265H5.535V90.7515ZM5.535 92.9678V93.1928H5.76V92.9678H5.535ZM0.97875 93.114C1.04412 93.114 1.14417 93.1009 1.22363 93.0214C1.30309 92.9419 1.31625 92.8419 1.31625 92.7765H0.86625C0.86625 92.7899 0.862531 92.7461 0.905432 92.7032C0.948333 92.6603 0.992126 92.664 0.97875 92.664V93.114ZM1.31625 92.7765V85.3403H0.86625V92.7765H1.31625ZM1.31625 85.3403C1.31625 85.2911 1.31009 85.1991 1.24441 85.1203C1.1705 85.0316 1.06943 85.014 1.00125 85.014V85.464C1.00057 85.464 0.944501 85.4633 0.898713 85.4084C0.861156 85.3633 0.86625 85.3219 0.86625 85.3403H1.31625ZM1.00125 85.014H0.5175V85.464H1.00125V85.014ZM0.5175 85.014C0.580467 85.014 0.636709 85.0451 0.671159 85.0904C0.700843 85.1293 0.70875 85.17 0.70875 85.1996C0.70875 85.2292 0.700843 85.27 0.671159 85.3089C0.636709 85.3542 0.580467 85.3853 0.5175 85.3853V84.9353C0.432033 84.9353 0.358916 84.9762 0.313216 85.0362C0.272282 85.0899 0.25875 85.1504 0.25875 85.1996C0.25875 85.2489 0.272282 85.3094 0.313216 85.3631C0.358916 85.4231 0.432033 85.464 0.5175 85.464V85.014ZM0.5175 85.3853H2.1375V84.9353H0.5175V85.3853ZM2.1375 85.3853C2.09572 85.3853 2.04544 85.3689 2.00621 85.3278C1.96979 85.2895 1.95469 85.2421 1.95469 85.1996C1.95469 85.1572 1.96979 85.1098 2.00621 85.0715C2.04544 85.0303 2.09572 85.014 2.1375 85.014V85.464C2.20741 85.464 2.27877 85.4379 2.33207 85.3819C2.38255 85.3289 2.40469 85.2618 2.40469 85.1996C2.40469 85.1375 2.38255 85.0704 2.33207 85.0174C2.27877 84.9614 2.20741 84.9353 2.1375 84.9353V85.3853ZM2.1375 85.014H1.665V85.464H2.1375V85.014ZM1.665 85.014C1.59657 85.014 1.50392 85.0313 1.42996 85.1052C1.35601 85.1792 1.33875 85.2718 1.33875 85.3403H1.78875C1.78875 85.3412 1.78836 85.3832 1.74816 85.4234C1.70796 85.4636 1.66593 85.464 1.665 85.464V85.014ZM1.33875 85.3403V92.7765H1.78875V85.3403H1.33875ZM1.33875 92.7765C1.33875 92.8419 1.35191 92.9419 1.43137 93.0214C1.51083 93.1009 1.61088 93.114 1.67625 93.114V92.664C1.66287 92.664 1.70667 92.6603 1.74957 92.7032C1.79247 92.7461 1.78875 92.7899 1.78875 92.7765H1.33875ZM1.67625 93.114H4.3875V92.664H1.67625V93.114ZM4.39553 93.1139C4.76587 93.1007 5.09354 92.9566 5.3269 92.6919C5.55885 92.4288 5.68125 92.0655 5.68125 91.6403H5.23125C5.23125 91.9801 5.13428 92.2299 4.98935 92.3943C4.84583 92.5571 4.63913 92.6549 4.37947 92.6642L4.39553 93.1139ZM5.68125 91.6403V90.7515H5.23125V91.6403H5.68125ZM5.45625 90.9765H5.535V90.5265H5.45625V90.9765ZM5.31 90.7515V92.9678H5.76V90.7515H5.31ZM5.535 92.7428H0.48375V93.1928H5.535V92.7428ZM0.48375 92.7428C0.546718 92.7428 0.60296 92.7739 0.63741 92.8191C0.667093 92.8581 0.675 92.8988 0.675 92.9284C0.675 92.958 0.667093 92.9987 0.63741 93.0377C0.60296 93.0829 0.546718 93.114 0.48375 93.114V92.664C0.398282 92.664 0.325165 92.705 0.279465 92.765C0.238532 92.8187 0.225 92.8791 0.225 92.9284C0.225 92.9777 0.238532 93.0381 0.279465 93.0918C0.325165 93.1518 0.398282 93.1928 0.48375 93.1928V92.7428ZM0.48375 93.114H0.97875V92.664H0.48375V93.114ZM13.7752 91.674V91.449H13.5502V91.674H13.7752ZM13.8539 91.674H14.0789V91.449H13.8539V91.674ZM13.8539 92.9678V93.1928H14.0789V92.9678H13.8539ZM13.4039 85.1603H13.6289V84.9353H13.4039V85.1603ZM13.4039 86.4765V86.7015H13.6289V86.4765H13.4039ZM13.3252 86.4765H13.1002V86.7015H13.3252V86.4765ZM12.4477 87.6578V87.4328H12.2227V87.6578H12.4477ZM12.5264 87.6578H12.7514V87.4328H12.5264V87.6578ZM12.5264 89.2778V89.5028H12.7514V89.2778H12.5264ZM12.4477 89.2778H12.2227V89.5028H12.4477V89.2778ZM11.7389 88.2878H9.78144V88.7378H11.7389V88.2878ZM9.78144 88.2878C9.73112 88.2878 9.63736 88.2965 9.56187 88.372C9.48637 88.4475 9.47769 88.5412 9.47769 88.5915H9.92769C9.92769 88.5918 9.92768 88.5945 9.92714 88.599C9.92659 88.6035 9.92541 88.6107 9.92269 88.6198C9.91698 88.639 9.90464 88.6656 9.88007 88.6902C9.8555 88.7147 9.82888 88.7271 9.80971 88.7328C9.80061 88.7355 9.79339 88.7367 9.7889 88.7372C9.78442 88.7378 9.78175 88.7378 9.78144 88.7378V88.2878ZM9.47769 88.5915V92.8103H9.92769V88.5915H9.47769ZM9.47769 92.8103C9.47769 92.8606 9.48637 92.9543 9.56187 93.0298C9.63736 93.1053 9.73112 93.114 9.78144 93.114V92.664C9.78175 92.664 9.78442 92.664 9.7889 92.6646C9.79339 92.6651 9.80061 92.6663 9.80971 92.669C9.82888 92.6747 9.8555 92.6871 9.88007 92.7116C9.90464 92.7362 9.91698 92.7628 9.92269 92.782C9.92541 92.7911 9.92659 92.7983 9.92714 92.8028C9.92768 92.8073 9.92769 92.81 9.92769 92.8103H9.47769ZM9.78144 93.114H12.8189V92.664H9.78144V93.114ZM12.8189 93.114C13.0783 93.114 13.3693 93.0383 13.6007 92.8564C13.8395 92.6685 14.0002 92.3781 14.0002 91.989H13.5502C13.5502 92.2412 13.4521 92.4008 13.3225 92.5026C13.1855 92.6104 12.9984 92.664 12.8189 92.664V93.114ZM14.0002 91.989V91.674H13.5502V91.989H14.0002ZM13.7752 91.899H13.8539V91.449H13.7752V91.899ZM13.6289 91.674V92.9678H14.0789V91.674H13.6289ZM13.8539 92.7428H8.62269V93.1928H13.8539V92.7428ZM8.62269 92.7428C8.65971 92.7428 8.70755 92.7569 8.74663 92.796C8.77895 92.8283 8.80269 92.8761 8.80269 92.934H8.35269C8.35269 93.0695 8.46467 93.1928 8.62269 93.1928V92.7428ZM8.80269 92.934C8.80269 93.0671 8.69066 93.114 8.63394 93.114V92.664C8.50971 92.664 8.35269 92.756 8.35269 92.934H8.80269ZM8.63394 93.114H9.15144V92.664H8.63394V93.114ZM9.15144 93.114C9.20822 93.114 9.28934 93.1 9.3582 93.038C9.43133 92.9722 9.45519 92.8846 9.45519 92.8103H9.00519C9.00519 92.7922 9.01217 92.744 9.05717 92.7035C9.09791 92.6668 9.13965 92.664 9.15144 92.664V93.114ZM9.45519 92.8103V85.3178H9.00519V92.8103H9.45519ZM9.45519 85.3178C9.45519 85.2675 9.4465 85.1737 9.371 85.0982C9.29551 85.0227 9.20175 85.014 9.15144 85.014V85.464C9.15112 85.464 9.14845 85.464 9.14397 85.4635C9.13948 85.4629 9.13226 85.4617 9.12316 85.459C9.104 85.4533 9.07738 85.441 9.05281 85.4164C9.02823 85.3918 9.01589 85.3652 9.01018 85.346C9.00746 85.3369 9.00628 85.3297 9.00573 85.3252C9.00519 85.3208 9.00519 85.3181 9.00519 85.3178H9.45519ZM9.15144 85.014H8.62269V85.464H9.15144V85.014ZM8.62269 85.014C8.65971 85.014 8.70755 85.0282 8.74663 85.0673C8.77895 85.0996 8.80269 85.1473 8.80269 85.2053H8.35269C8.35269 85.3408 8.46467 85.464 8.62269 85.464V85.014ZM8.80269 85.2053C8.80269 85.2275 8.79758 85.2737 8.76038 85.3184C8.71716 85.3702 8.65992 85.3853 8.62269 85.3853V84.9353C8.5517 84.9353 8.47196 84.9616 8.41468 85.0303C8.36342 85.0918 8.35269 85.1606 8.35269 85.2053H8.80269ZM8.62269 85.3853H13.4039V84.9353H8.62269V85.3853ZM13.1789 85.1603V86.4765H13.6289V85.1603H13.1789ZM13.4039 86.2515H13.3252V86.7015H13.4039V86.2515ZM13.5502 86.4765V86.2178H13.1002V86.4765H13.5502ZM13.5502 86.2178C13.5502 85.8599 13.4832 85.5384 13.253 85.3141C13.0248 85.0918 12.6862 85.014 12.2677 85.014V85.464C12.6479 85.464 12.8381 85.5382 12.9389 85.6364C13.0378 85.7327 13.1002 85.9006 13.1002 86.2178H13.5502ZM12.2677 85.014H9.78144V85.464H12.2677V85.014ZM9.78144 85.014C9.73112 85.014 9.63736 85.0227 9.56187 85.0982C9.48637 85.1737 9.47769 85.2675 9.47769 85.3178H9.92769C9.92769 85.3181 9.92768 85.3208 9.92714 85.3252C9.92659 85.3297 9.92541 85.3369 9.92269 85.346C9.91698 85.3652 9.90464 85.3918 9.88007 85.4164C9.8555 85.441 9.82887 85.4533 9.80971 85.459C9.80061 85.4617 9.79339 85.4629 9.7889 85.4635C9.78442 85.464 9.78175 85.464 9.78144 85.464V85.014ZM9.47769 85.3178V88.3553H9.92769V85.3178H9.47769ZM9.47769 88.3553C9.47769 88.4056 9.48637 88.4993 9.56187 88.5748C9.63736 88.6503 9.73112 88.659 9.78144 88.659V88.209C9.78175 88.209 9.78442 88.209 9.7889 88.2096C9.79339 88.2101 9.80061 88.2113 9.80971 88.214C9.82888 88.2197 9.8555 88.2321 9.88007 88.2566C9.90464 88.2812 9.91698 88.3078 9.92269 88.327C9.92541 88.3361 9.92659 88.3433 9.92714 88.3478C9.92768 88.3523 9.92769 88.355 9.92769 88.3553H9.47769ZM9.78144 88.659H11.5477V88.209H9.78144V88.659ZM11.5477 88.659C11.779 88.659 12.047 88.6306 12.2648 88.519C12.377 88.4615 12.4815 88.379 12.5574 88.2625C12.6339 88.1448 12.6727 88.0054 12.6727 87.849H12.2227C12.2227 87.9289 12.2038 87.9808 12.1802 88.0171C12.1558 88.0545 12.1176 88.0888 12.0596 88.1185C11.9372 88.1812 11.7551 88.209 11.5477 88.209V88.659ZM12.6727 87.849V87.6578H12.2227V87.849H12.6727ZM12.4477 87.8828H12.5264V87.4328H12.4477V87.8828ZM12.3014 87.6578V89.2778H12.7514V87.6578H12.3014ZM12.5264 89.0528H12.4477V89.5028H12.5264V89.0528ZM12.6727 89.2778V89.0753H12.2227V89.2778H12.6727ZM12.6727 89.0753C12.6727 88.8089 12.5435 88.6032 12.3589 88.4716C12.1808 88.3446 11.9551 88.2878 11.7389 88.2878V88.7378C11.8828 88.7378 12.0115 88.7766 12.0977 88.838C12.1775 88.8949 12.2227 88.9704 12.2227 89.0753H12.6727ZM17.6561 85.239V85.014L17.6515 85.0141L17.6561 85.239ZM16.8461 86.4878V86.7128H17.0711V86.4878H16.8461ZM16.7673 86.4878H16.5423V86.7128H16.7673V86.4878ZM16.7673 85.1603V84.9353H16.5423V85.1603H16.7673ZM22.7186 85.1603H22.9436V84.9353H22.7186V85.1603ZM22.7186 86.4878V86.7128H22.9436V86.4878H22.7186ZM22.6398 86.4878H22.4148V86.7128H22.6398V86.4878ZM18.9498 92.7428C18.977 92.7428 19.0202 92.7513 19.06 92.7861C19.0997 92.8209 19.1242 92.8724 19.1242 92.9284C19.1242 92.9844 19.0997 93.0359 19.06 93.0707C19.0202 93.1055 18.977 93.114 18.9498 93.114V92.664C18.821 92.664 18.6742 92.7572 18.6742 92.9284C18.6742 93.0996 18.821 93.1928 18.9498 93.1928V92.7428ZM18.9498 93.114H19.3548V92.664H18.9498V93.114ZM19.3548 93.114C19.4202 93.114 19.5203 93.1009 19.5997 93.0214C19.6792 92.9419 19.6923 92.8419 19.6923 92.7765H19.2423C19.2423 92.7899 19.2386 92.7461 19.2815 92.7032C19.3244 92.6603 19.3682 92.664 19.3548 92.664V93.114ZM19.6923 92.7765V85.3515H19.2423V92.7765H19.6923ZM19.6923 85.3515C19.6923 85.2861 19.6792 85.1861 19.5997 85.1066C19.5203 85.0272 19.4202 85.014 19.3548 85.014V85.464C19.3682 85.464 19.3244 85.4677 19.2815 85.4248C19.2386 85.3819 19.2423 85.3381 19.2423 85.3515H19.6923ZM19.3548 85.014H17.6561V85.464H19.3548V85.014ZM17.6515 85.0141C17.3232 85.0208 17.0591 85.1368 16.8782 85.3348C16.7001 85.5298 16.6211 85.7842 16.6211 86.0378H17.0711C17.0711 85.8751 17.1214 85.7358 17.2105 85.6383C17.2968 85.5437 17.4377 85.4685 17.6607 85.464L17.6515 85.0141ZM16.6211 86.0378V86.4878H17.0711V86.0378H16.6211ZM16.8461 86.2628H16.7673V86.7128H16.8461V86.2628ZM16.9923 86.4878V85.1603H16.5423V86.4878H16.9923ZM16.7673 85.3853H22.7186V84.9353H16.7673V85.3853ZM22.4936 85.1603V86.4878H22.9436V85.1603H22.4936ZM22.7186 86.2628H22.6398V86.7128H22.7186V86.2628ZM22.8648 86.4878V86.0265H22.4148V86.4878H22.8648ZM22.8648 86.0265C22.8648 85.7707 22.7816 85.515 22.5975 85.3216C22.4111 85.1256 22.1406 85.014 21.8073 85.014V85.464C22.0365 85.464 22.1824 85.5381 22.2715 85.6318C22.3631 85.728 22.4148 85.8661 22.4148 86.0265H22.8648ZM21.8073 85.014H20.0523V85.464H21.8073V85.014ZM20.0523 85.014C19.987 85.014 19.8869 85.0272 19.8075 85.1066C19.728 85.1861 19.7148 85.2861 19.7148 85.3515H20.1648C20.1648 85.3381 20.1686 85.3819 20.1257 85.4248C20.0828 85.4677 20.039 85.464 20.0523 85.464V85.014ZM19.7148 85.3515V92.7765H20.1648V85.3515H19.7148ZM19.7148 92.7765C19.7148 92.8419 19.728 92.9419 19.8075 93.0214C19.8869 93.1009 19.987 93.114 20.0523 93.114V92.664C20.039 92.664 20.0828 92.6603 20.1257 92.7032C20.1686 92.7461 20.1648 92.7899 20.1648 92.7765H19.7148ZM20.0523 93.114H20.4911V92.664H20.0523V93.114ZM20.4911 93.114C20.4493 93.114 20.399 93.0977 20.3598 93.0565C20.3234 93.0183 20.3083 92.9709 20.3083 92.9284C20.3083 92.8859 20.3234 92.8385 20.3598 92.8003C20.399 92.7591 20.4493 92.7428 20.4911 92.7428V93.1928C20.561 93.1928 20.6324 93.1666 20.6857 93.1106C20.7361 93.0576 20.7583 92.9906 20.7583 92.9284C20.7583 92.8662 20.7361 92.7992 20.6857 92.7462C20.6324 92.6902 20.561 92.664 20.4911 92.664V93.114ZM20.4911 92.7428H18.9498V93.1928H20.4911V92.7428ZM27.3885 92.7428H25.7235V93.1928H27.3885V92.7428ZM25.7235 92.7428C25.7506 92.7428 25.7938 92.7513 25.8337 92.7861C25.8734 92.8209 25.8979 92.8724 25.8979 92.9284C25.8979 92.9844 25.8734 93.0359 25.8337 93.0707C25.7938 93.1055 25.7506 93.114 25.7235 93.114V92.664C25.5946 92.664 25.4479 92.7572 25.4479 92.9284C25.4479 93.0996 25.5946 93.1928 25.7235 93.1928V92.7428ZM25.7235 93.114H26.2522V92.664H25.7235V93.114ZM26.2522 93.114C26.3025 93.114 26.3963 93.1053 26.4718 93.0298C26.5473 92.9543 26.556 92.8606 26.556 92.8103H26.106C26.106 92.81 26.106 92.8073 26.1065 92.8028C26.1071 92.7983 26.1083 92.7911 26.111 92.782C26.1167 92.7628 26.129 92.7362 26.1536 92.7116C26.1782 92.6871 26.2048 92.6747 26.224 92.669C26.2331 92.6663 26.2403 92.6651 26.2448 92.6646C26.2492 92.664 26.2519 92.664 26.2522 92.664V93.114ZM26.556 92.8103V85.3178H26.106V92.8103H26.556ZM26.556 85.3178C26.556 85.2675 26.5473 85.1737 26.4718 85.0982C26.3963 85.0227 26.3025 85.014 26.2522 85.014V85.464C26.2519 85.464 26.2492 85.464 26.2448 85.4635C26.2403 85.4629 26.2331 85.4617 26.224 85.459C26.2048 85.4533 26.1782 85.441 26.1536 85.4164C26.129 85.3918 26.1167 85.3652 26.111 85.346C26.1083 85.3369 26.1071 85.3297 26.1065 85.3252C26.106 85.3208 26.106 85.3181 26.106 85.3178H26.556ZM26.2522 85.014H25.7685V85.464H26.2522V85.014ZM25.7685 85.014C25.8103 85.014 25.8605 85.0303 25.8998 85.0715C25.9362 85.1098 25.9513 85.1572 25.9513 85.1996C25.9513 85.2421 25.9362 85.2895 25.8998 85.3278C25.8605 85.3689 25.8103 85.3853 25.7685 85.3853V84.9353C25.6986 84.9353 25.6272 84.9614 25.5739 85.0174C25.5234 85.0704 25.5013 85.1375 25.5013 85.1996C25.5013 85.2618 25.5234 85.3289 25.5739 85.3819C25.6272 85.4379 25.6986 85.464 25.7685 85.464V85.014ZM25.7685 85.3853H27.3772V84.9353H25.7685V85.3853ZM27.3772 85.3853C27.3143 85.3853 27.258 85.3542 27.2236 85.3089C27.1939 85.27 27.186 85.2292 27.186 85.1996C27.186 85.17 27.1939 85.1293 27.2236 85.0904C27.258 85.0451 27.3143 85.014 27.3772 85.014V85.464C27.4627 85.464 27.5358 85.4231 27.5815 85.3631C27.6224 85.3094 27.636 85.2489 27.636 85.1996C27.636 85.1504 27.6224 85.0899 27.5815 85.0362C27.5358 84.9762 27.4627 84.9353 27.3772 84.9353V85.3853ZM27.3772 85.014H26.871V85.464H27.3772V85.014ZM26.871 85.014C26.8207 85.014 26.7269 85.0227 26.6514 85.0982C26.5759 85.1737 26.5672 85.2675 26.5672 85.3178H27.0172C27.0172 85.3181 27.0172 85.3208 27.0167 85.3252C27.0161 85.3297 27.0149 85.3369 27.0122 85.346C27.0065 85.3652 26.9942 85.3918 26.9696 85.4164C26.945 85.441 26.9184 85.4533 26.8992 85.459C26.8902 85.4617 26.8829 85.4629 26.8784 85.4635C26.874 85.464 26.8713 85.464 26.871 85.464V85.014ZM26.5672 85.3178V92.8103H27.0172V85.3178H26.5672ZM26.5672 92.8103C26.5672 92.8606 26.5759 92.9543 26.6514 93.0298C26.7269 93.1053 26.8207 93.114 26.871 93.114V92.664C26.8713 92.664 26.874 92.664 26.8784 92.6646C26.8829 92.6651 26.8902 92.6663 26.8992 92.669C26.9184 92.6747 26.945 92.6871 26.9696 92.7116C26.9942 92.7362 27.0065 92.7628 27.0122 92.782C27.0149 92.7911 27.0161 92.7983 27.0167 92.8028C27.0172 92.8073 27.0172 92.81 27.0172 92.8103H26.5672ZM26.871 93.114H27.3885V92.664H26.871V93.114ZM27.3885 93.114C27.3467 93.114 27.2964 93.0977 27.2572 93.0565C27.2208 93.0183 27.2057 92.9709 27.2057 92.9284C27.2057 92.8859 27.2208 92.8385 27.2572 92.8003C27.2964 92.7591 27.3467 92.7428 27.3885 92.7428V93.1928C27.4584 93.1928 27.5298 93.1666 27.583 93.1106C27.6335 93.0576 27.6557 92.9906 27.6557 92.9284C27.6557 92.8662 27.6335 92.7992 27.583 92.7462C27.5298 92.6902 27.4584 92.664 27.3885 92.664V93.114ZM30.5995 92.7428C30.6413 92.7428 30.6915 92.7591 30.7308 92.8003C30.7672 92.8385 30.7823 92.8859 30.7823 92.9284C30.7823 92.9709 30.7672 93.0183 30.7308 93.0565C30.6915 93.0977 30.6413 93.114 30.5995 93.114V92.664C30.5296 92.664 30.4582 92.6902 30.4049 92.7462C30.3544 92.7992 30.3323 92.8662 30.3323 92.9284C30.3323 92.9906 30.3544 93.0576 30.4049 93.1106C30.4582 93.1666 30.5296 93.1928 30.5995 93.1928V92.7428ZM30.5995 93.114H31.1057V92.664H30.5995V93.114ZM31.1057 93.114C31.156 93.114 31.2498 93.1053 31.3253 93.0298C31.4008 92.9543 31.4095 92.8606 31.4095 92.8103H30.9595C30.9595 92.81 30.9595 92.8073 30.96 92.8028C30.9606 92.7983 30.9618 92.7911 30.9645 92.782C30.9702 92.7628 30.9825 92.7362 31.0071 92.7116C31.0317 92.6871 31.0583 92.6747 31.0775 92.669C31.0865 92.6663 31.0938 92.6651 31.0983 92.6646C31.1027 92.664 31.1054 92.664 31.1057 92.664V93.114ZM31.4095 92.8103V85.3178H30.9595V92.8103H31.4095ZM31.4095 85.3178C31.4095 85.2675 31.4008 85.1737 31.3253 85.0982C31.2498 85.0227 31.156 85.014 31.1057 85.014V85.464C31.1054 85.464 31.1027 85.464 31.0983 85.4635C31.0938 85.4629 31.0865 85.4617 31.0775 85.459C31.0583 85.4533 31.0317 85.441 31.0071 85.4164C30.9825 85.3918 30.9702 85.3652 30.9645 85.346C30.9618 85.3369 30.9606 85.3297 30.96 85.3252C30.9595 85.3208 30.9595 85.3181 30.9595 85.3178H31.4095ZM31.1057 85.014H30.5995V85.464H31.1057V85.014ZM30.5995 85.014C30.6413 85.014 30.6915 85.0303 30.7308 85.0715C30.7672 85.1098 30.7823 85.1572 30.7823 85.1996C30.7823 85.2421 30.7672 85.2895 30.7308 85.3278C30.6915 85.3689 30.6413 85.3853 30.5995 85.3853V84.9353C30.5296 84.9353 30.4582 84.9614 30.4049 85.0174C30.3544 85.0704 30.3323 85.1375 30.3323 85.1996C30.3323 85.2618 30.3544 85.3289 30.4049 85.3819C30.4582 85.4379 30.5296 85.464 30.5995 85.464V85.014ZM30.5995 85.3853H32.242V84.9353H30.5995V85.3853ZM32.242 85.3853C32.179 85.3853 32.1228 85.3542 32.0883 85.3089C32.0586 85.27 32.0507 85.2292 32.0507 85.1996C32.0507 85.17 32.0586 85.1293 32.0883 85.0904C32.1228 85.0451 32.179 85.014 32.242 85.014V85.464C32.3274 85.464 32.4006 85.4231 32.4463 85.3631C32.4872 85.3094 32.5007 85.2489 32.5007 85.1996C32.5007 85.1504 32.4872 85.0899 32.4463 85.0362C32.4006 84.9762 32.3274 84.9353 32.242 84.9353V85.3853ZM32.242 85.014H31.7357V85.464H32.242V85.014ZM31.7357 85.014C31.6854 85.014 31.5917 85.0227 31.5162 85.0982C31.4407 85.1737 31.432 85.2675 31.432 85.3178H31.882C31.882 85.3181 31.882 85.3208 31.8814 85.3252C31.8809 85.3297 31.8797 85.3369 31.877 85.346C31.8713 85.3652 31.8589 85.3918 31.8344 85.4164C31.8098 85.441 31.7832 85.4533 31.764 85.459C31.7549 85.4617 31.7477 85.4629 31.7432 85.4635C31.7387 85.464 31.736 85.464 31.7357 85.464V85.014ZM31.432 85.3178V88.5128H31.882V85.3178H31.432ZM31.432 88.5128C31.432 88.5631 31.4407 88.6568 31.5162 88.7323C31.5917 88.8078 31.6854 88.8165 31.7357 88.8165V88.3665C31.736 88.3665 31.7387 88.3665 31.7432 88.3671C31.7477 88.3676 31.7549 88.3688 31.764 88.3715C31.7832 88.3772 31.8098 88.3896 31.8344 88.4141C31.8589 88.4387 31.8713 88.4653 31.877 88.4845C31.8797 88.4936 31.8809 88.5008 31.8814 88.5053C31.882 88.5098 31.882 88.5125 31.882 88.5128H31.432ZM31.7357 88.8165H35.6507V88.3665H31.7357V88.8165ZM35.6507 88.8165C35.701 88.8165 35.7948 88.8078 35.8703 88.7323C35.9458 88.6568 35.9545 88.5631 35.9545 88.5128H35.5045C35.5045 88.5125 35.5045 88.5098 35.505 88.5053C35.5056 88.5008 35.5068 88.4936 35.5095 88.4845C35.5152 88.4653 35.5275 88.4387 35.5521 88.4141C35.5767 88.3896 35.6033 88.3772 35.6225 88.3715C35.6315 88.3688 35.6388 88.3676 35.6433 88.3671C35.6477 88.3665 35.6504 88.3665 35.6507 88.3665V88.8165ZM35.9545 88.5128V85.3178H35.5045V88.5128H35.9545ZM35.9545 85.3178C35.9545 85.2675 35.9458 85.1737 35.8703 85.0982C35.7948 85.0227 35.701 85.014 35.6507 85.014V85.464C35.6504 85.464 35.6477 85.464 35.6433 85.4635C35.6388 85.4629 35.6315 85.4617 35.6225 85.459C35.6033 85.4533 35.5767 85.441 35.5521 85.4164C35.5275 85.3918 35.5152 85.3652 35.5095 85.346C35.5068 85.3369 35.5056 85.3297 35.505 85.3252C35.5045 85.3208 35.5045 85.3181 35.5045 85.3178H35.9545ZM35.6507 85.014H35.1332V85.464H35.6507V85.014ZM35.1332 85.014C35.175 85.014 35.2253 85.0303 35.2645 85.0715C35.3009 85.1098 35.316 85.1572 35.316 85.1996C35.316 85.2421 35.3009 85.2895 35.2645 85.3278C35.2253 85.3689 35.175 85.3853 35.1332 85.3853V84.9353C35.0633 84.9353 34.9919 84.9614 34.9387 85.0174C34.8882 85.0704 34.866 85.1375 34.866 85.1996C34.866 85.2618 34.8882 85.3289 34.9387 85.3819C34.9919 85.4379 35.0633 85.464 35.1332 85.464V85.014ZM35.1332 85.3853H36.7757V84.9353H35.1332V85.3853ZM36.7757 85.3853C36.7128 85.3853 36.6565 85.3542 36.6221 85.3089C36.5924 85.27 36.5845 85.2292 36.5845 85.1996C36.5845 85.17 36.5924 85.1293 36.6221 85.0904C36.6565 85.0451 36.7128 85.014 36.7757 85.014V85.464C36.8612 85.464 36.9343 85.4231 36.98 85.3631C37.0209 85.3094 37.0345 85.2489 37.0345 85.1996C37.0345 85.1504 37.0209 85.0899 36.98 85.0362C36.9343 84.9762 36.8612 84.9353 36.7757 84.9353V85.3853ZM36.7757 85.014H36.2807V85.464H36.7757V85.014ZM36.2807 85.014C36.2304 85.014 36.1367 85.0227 36.0612 85.0982C35.9857 85.1737 35.977 85.2675 35.977 85.3178H36.427C36.427 85.3181 36.427 85.3208 36.4264 85.3252C36.4259 85.3297 36.4247 85.3369 36.422 85.346C36.4163 85.3652 36.4039 85.3918 36.3794 85.4164C36.3548 85.441 36.3282 85.4533 36.309 85.459C36.2999 85.4617 36.2927 85.4629 36.2882 85.4635C36.2837 85.464 36.281 85.464 36.2807 85.464V85.014ZM35.977 85.3178V92.8103H36.427V85.3178H35.977ZM35.977 92.8103C35.977 92.8606 35.9857 92.9543 36.0612 93.0298C36.1367 93.1053 36.2304 93.114 36.2807 93.114V92.664C36.281 92.664 36.2837 92.664 36.2882 92.6646C36.2927 92.6651 36.2999 92.6663 36.309 92.669C36.3282 92.6747 36.3548 92.6871 36.3794 92.7116C36.4039 92.7362 36.4163 92.7628 36.422 92.782C36.4247 92.7911 36.4259 92.7983 36.4264 92.8028C36.427 92.8073 36.427 92.81 36.427 92.8103H35.977ZM36.2807 93.114H36.7757V92.664H36.2807V93.114ZM36.7757 93.114C36.7128 93.114 36.6565 93.0829 36.6221 93.0377C36.5924 92.9987 36.5845 92.958 36.5845 92.9284C36.5845 92.8988 36.5924 92.8581 36.6221 92.8191C36.6565 92.7739 36.7128 92.7428 36.7757 92.7428V93.1928C36.8612 93.1928 36.9343 93.1518 36.98 93.0918C37.0209 93.0381 37.0345 92.9777 37.0345 92.9284C37.0345 92.8791 37.0209 92.8187 36.98 92.765C36.9343 92.705 36.8612 92.664 36.7757 92.664V93.114ZM36.7757 92.7428H35.1332V93.1928H36.7757V92.7428ZM35.1332 92.7428C35.175 92.7428 35.2253 92.7591 35.2645 92.8003C35.3009 92.8385 35.316 92.8859 35.316 92.9284C35.316 92.9709 35.3009 93.0183 35.2645 93.0565C35.2253 93.0977 35.175 93.114 35.1332 93.114V92.664C35.0633 92.664 34.9919 92.6902 34.9387 92.7462C34.8882 92.7992 34.866 92.8662 34.866 92.9284C34.866 92.9906 34.8882 93.0576 34.9387 93.1106C34.9919 93.1666 35.0633 93.1928 35.1332 93.1928V92.7428ZM35.1332 93.114H35.6507V92.664H35.1332V93.114ZM35.6507 93.114C35.701 93.114 35.7948 93.1053 35.8703 93.0298C35.9458 92.9543 35.9545 92.8606 35.9545 92.8103H35.5045C35.5045 92.81 35.5045 92.8073 35.505 92.8028C35.5056 92.7983 35.5068 92.7911 35.5095 92.782C35.5152 92.7628 35.5275 92.7362 35.5521 92.7116C35.5767 92.6871 35.6033 92.6747 35.6225 92.669C35.6315 92.6663 35.6388 92.6651 35.6433 92.6646C35.6477 92.664 35.6504 92.664 35.6507 92.664V93.114ZM35.9545 92.8103V88.749H35.5045V92.8103H35.9545ZM35.9545 88.749C35.9545 88.6987 35.9458 88.605 35.8703 88.5295C35.7948 88.454 35.701 88.4453 35.6507 88.4453V88.8953C35.6504 88.8953 35.6477 88.8953 35.6433 88.8947C35.6388 88.8942 35.6315 88.893 35.6225 88.8903C35.6033 88.8846 35.5767 88.8722 35.5521 88.8477C35.5275 88.8231 35.5152 88.7965 35.5095 88.7773C35.5068 88.7682 35.5056 88.761 35.505 88.7565C35.5045 88.752 35.5045 88.7493 35.5045 88.749H35.9545ZM35.6507 88.4453H31.7357V88.8953H35.6507V88.4453ZM31.7357 88.4453C31.6854 88.4453 31.5917 88.454 31.5162 88.5295C31.4407 88.605 31.432 88.6987 31.432 88.749H31.882C31.882 88.7493 31.882 88.752 31.8814 88.7565C31.8809 88.761 31.8797 88.7682 31.877 88.7773C31.8713 88.7965 31.8589 88.8231 31.8344 88.8477C31.8098 88.8722 31.7832 88.8846 31.764 88.8903C31.7549 88.893 31.7477 88.8942 31.7432 88.8947C31.7387 88.8953 31.736 88.8953 31.7357 88.8953V88.4453ZM31.432 88.749V92.8103H31.882V88.749H31.432ZM31.432 92.8103C31.432 92.8606 31.4407 92.9543 31.5162 93.0298C31.5917 93.1053 31.6854 93.114 31.7357 93.114V92.664C31.736 92.664 31.7387 92.664 31.7432 92.6646C31.7477 92.6651 31.7549 92.6663 31.764 92.669C31.7832 92.6747 31.8098 92.6871 31.8344 92.7116C31.8589 92.7362 31.8713 92.7628 31.877 92.782C31.8797 92.7911 31.8809 92.7983 31.8814 92.8028C31.882 92.8073 31.882 92.81 31.882 92.8103H31.432ZM31.7357 93.114H32.242V92.664H31.7357V93.114ZM32.242 93.114C32.179 93.114 32.1228 93.0829 32.0883 93.0377C32.0586 92.9987 32.0507 92.958 32.0507 92.9284C32.0507 92.8988 32.0586 92.8581 32.0883 92.8191C32.1228 92.7739 32.179 92.7428 32.242 92.7428V93.1928C32.3274 93.1928 32.4006 93.1518 32.4463 93.0918C32.4872 93.0381 32.5007 92.9777 32.5007 92.9284C32.5007 92.8791 32.4872 92.8187 32.4463 92.765C32.4006 92.705 32.3274 92.664 32.242 92.664V93.114ZM32.242 92.7428H30.5995V93.1928H32.242V92.7428ZM47.5559 85.1603L47.5582 84.9353H47.5559V85.1603ZM47.9609 88.704L47.9301 88.4811L47.8724 88.4891L47.8259 88.524L47.9609 88.704ZM47.9159 88.7378L47.7809 88.5578L47.2243 88.9752L47.9199 88.9627L47.9159 88.7378ZM44.8559 92.7428C44.883 92.7428 44.9262 92.7513 44.9661 92.7861C45.0057 92.8209 45.0302 92.8724 45.0302 92.9284C45.0302 92.9844 45.0057 93.0359 44.9661 93.0707C44.9262 93.1055 44.883 93.114 44.8559 93.114V92.664C44.727 92.664 44.5802 92.7572 44.5802 92.9284C44.5802 93.0996 44.727 93.1928 44.8559 93.1928V92.7428ZM44.8559 93.114H45.3846V92.664H44.8559V93.114ZM45.3846 93.114C45.4414 93.114 45.5225 93.1 45.5914 93.038C45.6645 92.9722 45.6884 92.8846 45.6884 92.8103H45.2384C45.2384 92.7922 45.2453 92.744 45.2903 92.7035C45.3311 92.6668 45.3728 92.664 45.3846 92.664V93.114ZM45.6884 92.8103V85.3178H45.2384V92.8103H45.6884ZM45.6884 85.3178C45.6884 85.2675 45.6797 85.1737 45.6042 85.0982C45.5287 85.0227 45.4349 85.014 45.3846 85.014V85.464C45.3843 85.464 45.3816 85.464 45.3771 85.4635C45.3727 85.4629 45.3654 85.4617 45.3563 85.459C45.3372 85.4533 45.3105 85.441 45.286 85.4164C45.2614 85.3918 45.2491 85.3652 45.2434 85.346C45.2406 85.3369 45.2395 85.3297 45.2389 85.3252C45.2384 85.3208 45.2384 85.3181 45.2384 85.3178H45.6884ZM45.3846 85.014H44.8559V85.464H45.3846V85.014ZM44.8559 85.014C44.9463 85.014 45.0269 85.086 45.0339 85.1836C45.0374 85.2331 45.0211 85.2902 44.9767 85.3335C44.9325 85.3767 44.8825 85.3853 44.8559 85.3853V84.9353C44.7954 84.9353 44.7216 84.9537 44.6623 85.0116C44.6027 85.0697 44.5801 85.1465 44.585 85.2157C44.5948 85.3526 44.7092 85.464 44.8559 85.464V85.014ZM44.8559 85.3853H47.5559V84.9353H44.8559V85.3853ZM47.5536 85.3853C48.0757 85.3906 48.6314 85.5165 49.0486 85.776C49.4578 86.0305 49.7271 86.4063 49.7271 86.9378H50.1771C50.1771 86.2205 49.7996 85.7132 49.2863 85.3939C48.781 85.0796 48.1385 84.9412 47.5582 84.9353L47.5536 85.3853ZM49.7271 86.9378C49.7271 87.3296 49.5209 87.6785 49.1816 87.9543C48.8413 88.2308 48.3831 88.4187 47.9301 88.4811L47.9916 88.9269C48.5174 88.8544 49.0548 88.6372 49.4654 88.3035C49.8771 87.9689 50.1771 87.5022 50.1771 86.9378H49.7271ZM47.8259 88.524L47.7809 88.5578L48.0509 88.9178L48.0959 88.884L47.8259 88.524ZM47.9199 88.9627C48.5096 88.9522 49.1168 89.1164 49.5702 89.4328C50.0184 89.7455 50.3121 90.2015 50.3121 90.7965H50.7621C50.7621 90.0303 50.3752 89.4457 49.8277 89.0637C49.2856 88.6854 48.5821 88.5008 47.9118 88.5128L47.9199 88.9627ZM50.3121 90.7965C50.3121 91.4398 50.0097 91.9174 49.5472 92.2422C49.078 92.5717 48.4423 92.7428 47.8034 92.7428V93.1928C48.5144 93.1928 49.2456 93.0038 49.8058 92.6105C50.3726 92.2125 50.7621 91.6045 50.7621 90.7965H50.3121ZM47.8034 92.7428H44.8559V93.1928H47.8034V92.7428ZM47.4434 88.5465H46.0146V88.9965H47.4434V88.5465ZM46.0146 88.5465C45.9643 88.5465 45.8705 88.5552 45.795 88.6307C45.7195 88.7062 45.7109 88.8 45.7109 88.8503H46.1609C46.1609 88.8506 46.1609 88.8533 46.1603 88.8577C46.1598 88.8622 46.1586 88.8694 46.1559 88.8785C46.1502 88.8977 46.1378 88.9243 46.1132 88.9489C46.0887 88.9735 46.062 88.9858 46.0429 88.9915C46.0338 88.9942 46.0266 88.9954 46.0221 88.996C46.0176 88.9965 46.0149 88.9965 46.0146 88.9965V88.5465ZM45.7109 88.8503V92.8103H46.1609V88.8503H45.7109ZM45.7109 92.8103C45.7109 92.8606 45.7195 92.9543 45.795 93.0298C45.8705 93.1053 45.9643 93.114 46.0146 93.114V92.664C46.0149 92.664 46.0176 92.664 46.0221 92.6646C46.0266 92.6651 46.0338 92.6663 46.0429 92.669C46.062 92.6747 46.0887 92.6871 46.1132 92.7116C46.1378 92.7362 46.1502 92.7628 46.1559 92.782C46.1586 92.7911 46.1598 92.7983 46.1603 92.8028C46.1609 92.8073 46.1609 92.81 46.1609 92.8103H45.7109ZM46.0146 93.114H47.8034V92.664H46.0146V93.114ZM47.8034 93.114C48.444 93.114 49.0559 92.9572 49.5114 92.5765C49.9736 92.1902 50.2446 91.5988 50.2446 90.7965H49.7946C49.7946 91.4905 49.5649 91.9453 49.2228 92.2312C48.874 92.5227 48.3778 92.664 47.8034 92.664V93.114ZM50.2446 90.7965C50.2446 89.9406 49.9507 89.3555 49.4179 88.9981C48.9039 88.6533 48.2039 88.5465 47.4434 88.5465V88.9965C48.1791 88.9965 48.7672 89.1035 49.1672 89.3718C49.5485 89.6276 49.7946 90.055 49.7946 90.7965H50.2446ZM49.7046 86.9378C49.7046 86.2327 49.4374 85.7367 49.0085 85.4254C48.5913 85.1226 48.0484 85.014 47.5221 85.014V85.464C47.9971 85.464 48.4329 85.5636 48.7442 85.7895C49.0437 86.007 49.2546 86.3603 49.2546 86.9378H49.7046ZM47.5221 85.014H46.0146V85.464H47.5221V85.014ZM46.0146 85.014C45.9643 85.014 45.8705 85.0227 45.795 85.0982C45.7195 85.1737 45.7109 85.2675 45.7109 85.3178H46.1609C46.1609 85.3181 46.1609 85.3208 46.1603 85.3252C46.1598 85.3297 46.1586 85.3369 46.1559 85.346C46.1502 85.3652 46.1378 85.3918 46.1132 85.4164C46.0887 85.441 46.062 85.4533 46.0429 85.459C46.0338 85.4617 46.0266 85.4629 46.0221 85.4635C46.0176 85.464 46.0149 85.464 46.0146 85.464V85.014ZM45.7109 85.3178V88.614H46.1609V85.3178H45.7109ZM45.7109 88.614C45.7109 88.6643 45.7195 88.7581 45.795 88.8336C45.8705 88.9091 45.9643 88.9178 46.0146 88.9178V88.4678C46.0149 88.4678 46.0176 88.4678 46.0221 88.4683C46.0266 88.4689 46.0338 88.4701 46.0429 88.4728C46.062 88.4785 46.0887 88.4908 46.1132 88.5154C46.1378 88.54 46.1502 88.5666 46.1559 88.5858C46.1586 88.5948 46.1598 88.6021 46.1603 88.6066C46.1609 88.611 46.1609 88.6137 46.1609 88.614H45.7109ZM46.0146 88.9178H47.3309V88.4678H46.0146V88.9178ZM47.3309 88.9178C48.0116 88.9178 48.6062 88.7879 49.0348 88.4628C49.4749 88.129 49.7046 87.6169 49.7046 86.9378H49.2546C49.2546 87.5074 49.068 87.8728 48.7629 88.1043C48.4462 88.3445 47.9663 88.4678 47.3309 88.4678V88.9178ZM58.784 91.674V91.449H58.559V91.674H58.784ZM58.8627 91.674H59.0877V91.449H58.8627V91.674ZM58.8627 92.9678V93.1928H59.0877V92.9678H58.8627ZM58.4127 85.1603H58.6377V84.9353H58.4127V85.1603ZM58.4127 86.4765V86.7015H58.6377V86.4765H58.4127ZM58.334 86.4765H58.109V86.7015H58.334V86.4765ZM57.4565 87.6578V87.4328H57.2315V87.6578H57.4565ZM57.5352 87.6578H57.7602V87.4328H57.5352V87.6578ZM57.5352 89.2778V89.5028H57.7602V89.2778H57.5352ZM57.4565 89.2778H57.2315V89.5028H57.4565V89.2778ZM56.7477 88.2878H54.7902V88.7378H56.7477V88.2878ZM54.7902 88.2878C54.7399 88.2878 54.6462 88.2965 54.5707 88.372C54.4952 88.4475 54.4865 88.5412 54.4865 88.5915H54.9365C54.9365 88.5918 54.9365 88.5945 54.9359 88.599C54.9354 88.6035 54.9342 88.6107 54.9315 88.6198C54.9258 88.639 54.9134 88.6656 54.8889 88.6902C54.8643 88.7147 54.8377 88.7271 54.8185 88.7328C54.8094 88.7355 54.8022 88.7367 54.7977 88.7372C54.7932 88.7378 54.7905 88.7378 54.7902 88.7378V88.2878ZM54.4865 88.5915V92.8103H54.9365V88.5915H54.4865ZM54.4865 92.8103C54.4865 92.8606 54.4952 92.9543 54.5707 93.0298C54.6462 93.1053 54.7399 93.114 54.7902 93.114V92.664C54.7905 92.664 54.7932 92.664 54.7977 92.6646C54.8022 92.6651 54.8094 92.6663 54.8185 92.669C54.8377 92.6747 54.8643 92.6871 54.8889 92.7116C54.9134 92.7362 54.9258 92.7628 54.9315 92.782C54.9342 92.7911 54.9354 92.7983 54.9359 92.8028C54.9365 92.8073 54.9365 92.81 54.9365 92.8103H54.4865ZM54.7902 93.114H57.8277V92.664H54.7902V93.114ZM57.8277 93.114C58.087 93.114 58.378 93.0383 58.6095 92.8564C58.8483 92.6685 59.009 92.3781 59.009 91.989H58.559C58.559 92.2412 58.4609 92.4008 58.3313 92.5026C58.1943 92.6104 58.0072 92.664 57.8277 92.664V93.114ZM59.009 91.989V91.674H58.559V91.989H59.009ZM58.784 91.899H58.8627V91.449H58.784V91.899ZM58.6377 91.674V92.9678H59.0877V91.674H58.6377ZM58.8627 92.7428H53.6315V93.1928H58.8627V92.7428ZM53.6315 92.7428C53.6685 92.7428 53.7163 92.7569 53.7554 92.796C53.7877 92.8283 53.8115 92.8761 53.8115 92.934H53.3615C53.3615 93.0695 53.4735 93.1928 53.6315 93.1928V92.7428ZM53.8115 92.934C53.8115 93.0671 53.6994 93.114 53.6427 93.114V92.664C53.5185 92.664 53.3615 92.756 53.3615 92.934H53.8115ZM53.6427 93.114H54.1602V92.664H53.6427V93.114ZM54.1602 93.114C54.217 93.114 54.2981 93.1 54.367 93.038C54.4401 92.9722 54.464 92.8846 54.464 92.8103H54.014C54.014 92.7922 54.021 92.744 54.066 92.7035C54.1067 92.6668 54.1484 92.664 54.1602 92.664V93.114ZM54.464 92.8103V85.3178H54.014V92.8103H54.464ZM54.464 85.3178C54.464 85.2675 54.4553 85.1737 54.3798 85.0982C54.3043 85.0227 54.2105 85.014 54.1602 85.014V85.464C54.1599 85.464 54.1572 85.464 54.1528 85.4635C54.1483 85.4629 54.141 85.4617 54.132 85.459C54.1128 85.4533 54.0862 85.441 54.0616 85.4164C54.037 85.3918 54.0247 85.3652 54.019 85.346C54.0163 85.3369 54.0151 85.3297 54.0145 85.3252C54.014 85.3208 54.014 85.3181 54.014 85.3178H54.464ZM54.1602 85.014H53.6315V85.464H54.1602V85.014ZM53.6315 85.014C53.6685 85.014 53.7163 85.0282 53.7554 85.0673C53.7877 85.0996 53.8115 85.1473 53.8115 85.2053H53.3615C53.3615 85.3408 53.4735 85.464 53.6315 85.464V85.014ZM53.8115 85.2053C53.8115 85.2275 53.8064 85.2737 53.7692 85.3184C53.726 85.3702 53.6687 85.3853 53.6315 85.3853V84.9353C53.5605 84.9353 53.4807 84.9616 53.4235 85.0303C53.3722 85.0918 53.3615 85.1606 53.3615 85.2053H53.8115ZM53.6315 85.3853H58.4127V84.9353H53.6315V85.3853ZM58.1877 85.1603V86.4765H58.6377V85.1603H58.1877ZM58.4127 86.2515H58.334V86.7015H58.4127V86.2515ZM58.559 86.4765V86.2178H58.109V86.4765H58.559ZM58.559 86.2178C58.559 85.8599 58.492 85.5384 58.2618 85.3141C58.0336 85.0918 57.695 85.014 57.2765 85.014V85.464C57.6567 85.464 57.8469 85.5382 57.9477 85.6364C58.0466 85.7327 58.109 85.9006 58.109 86.2178H58.559ZM57.2765 85.014H54.7902V85.464H57.2765V85.014ZM54.7902 85.014C54.7399 85.014 54.6462 85.0227 54.5707 85.0982C54.4952 85.1737 54.4865 85.2675 54.4865 85.3178H54.9365C54.9365 85.3181 54.9365 85.3208 54.9359 85.3252C54.9354 85.3297 54.9342 85.3369 54.9315 85.346C54.9258 85.3652 54.9134 85.3918 54.8889 85.4164C54.8643 85.441 54.8377 85.4533 54.8185 85.459C54.8094 85.4617 54.8022 85.4629 54.7977 85.4635C54.7932 85.464 54.7905 85.464 54.7902 85.464V85.014ZM54.4865 85.3178V88.3553H54.9365V85.3178H54.4865ZM54.4865 88.3553C54.4865 88.4056 54.4952 88.4993 54.5707 88.5748C54.6462 88.6503 54.7399 88.659 54.7902 88.659V88.209C54.7905 88.209 54.7932 88.209 54.7977 88.2096C54.8022 88.2101 54.8094 88.2113 54.8185 88.214C54.8377 88.2197 54.8643 88.2321 54.8889 88.2566C54.9134 88.2812 54.9258 88.3078 54.9315 88.327C54.9342 88.3361 54.9354 88.3433 54.9359 88.3478C54.9365 88.3523 54.9365 88.355 54.9365 88.3553H54.4865ZM54.7902 88.659H56.5565V88.209H54.7902V88.659ZM56.5565 88.659C56.7878 88.659 57.0558 88.6306 57.2736 88.519C57.3858 88.4615 57.4903 88.379 57.5661 88.2625C57.6427 88.1448 57.6815 88.0054 57.6815 87.849H57.2315C57.2315 87.9289 57.2126 87.9808 57.189 88.0171C57.1646 88.0545 57.1264 88.0888 57.0684 88.1185C56.9459 88.1812 56.7639 88.209 56.5565 88.209V88.659ZM57.6815 87.849V87.6578H57.2315V87.849H57.6815ZM57.4565 87.8828H57.5352V87.4328H57.4565V87.8828ZM57.3102 87.6578V89.2778H57.7602V87.6578H57.3102ZM57.5352 89.0528H57.4565V89.5028H57.5352V89.0528ZM57.6815 89.2778V89.0753H57.2315V89.2778H57.6815ZM57.6815 89.0753C57.6815 88.8089 57.5523 88.6032 57.3677 88.4716C57.1895 88.3446 56.9639 88.2878 56.7477 88.2878V88.7378C56.8915 88.7378 57.0203 88.7766 57.1065 88.838C57.1863 88.8949 57.2315 88.9704 57.2315 89.0753H57.6815ZM65.311 85.1603L65.5217 85.0814L65.4671 84.9353H65.311V85.1603ZM68.2022 92.889L67.9915 92.9679L68.0462 93.114H68.2022V92.889ZM67.7297 92.889V93.114H68.054L67.9405 92.8103L67.7297 92.889ZM66.5485 89.7278L66.7593 89.649L66.7046 89.5028H66.5485V89.7278ZM63.2635 89.7278V89.5028H63.1063L63.0522 89.6503L63.2635 89.7278ZM62.1047 92.889L61.8935 92.8116L61.7826 93.114H62.1047V92.889ZM62.0147 92.889V93.114H62.1722L62.2261 92.9661L62.0147 92.889ZM64.8047 85.239L65.0161 85.3161L65.1263 85.014H64.8047V85.239ZM64.8722 85.284L65.0828 85.2048L64.8686 84.6354L64.6608 85.2072L64.8722 85.284ZM63.286 89.649L63.0745 89.5722L62.9648 89.874H63.286V89.649ZM66.5147 89.649V89.874H66.8398L66.7253 89.5698L66.5147 89.649ZM64.321 85.014C64.358 85.014 64.4059 85.0282 64.4449 85.0673C64.4773 85.0996 64.501 85.1473 64.501 85.2053H64.051C64.051 85.3408 64.163 85.464 64.321 85.464V85.014ZM64.501 85.2053C64.501 85.2275 64.4959 85.2737 64.4587 85.3184C64.4155 85.3702 64.3582 85.3853 64.321 85.3853V84.9353C64.25 84.9353 64.1703 84.9616 64.113 85.0303C64.0617 85.0918 64.051 85.1606 64.051 85.2053H64.501ZM64.321 85.3853H65.311V84.9353H64.321V85.3853ZM65.1003 85.2391L67.9915 92.9679L68.413 92.8102L65.5217 85.0814L65.1003 85.2391ZM68.2022 93.114H68.8097V92.664H68.2022V93.114ZM68.8097 93.114C68.7478 93.114 68.7047 93.0853 68.6816 93.0622C68.6584 93.039 68.6297 92.996 68.6297 92.934H69.0797C69.0797 92.8496 69.0398 92.784 68.9998 92.744C68.9598 92.704 68.8942 92.664 68.8097 92.664V93.114ZM68.6297 92.934C68.6297 92.8712 68.6567 92.8297 68.6637 92.8192C68.6749 92.8024 68.6868 92.7905 68.6966 92.7823C68.7123 92.7692 68.7504 92.7428 68.8097 92.7428V93.1928C68.8916 93.1928 68.9522 93.1551 68.9847 93.128C69.003 93.1127 69.0219 93.0931 69.0381 93.0689C69.05 93.051 69.0797 93.0024 69.0797 92.934H68.6297ZM68.8097 92.7428H67.0997V93.1928H68.8097V92.7428ZM67.0997 92.7428C67.1368 92.7428 67.1846 92.7569 67.2237 92.796C67.256 92.8283 67.2797 92.8761 67.2797 92.934H66.8297C66.8297 93.0695 66.9417 93.1928 67.0997 93.1928V92.7428ZM67.2797 92.934C67.2797 92.9562 67.2746 93.0025 67.2374 93.0471C67.1942 93.099 67.137 93.114 67.0997 93.114V92.664C67.0288 92.664 66.949 92.6903 66.8917 92.759C66.8405 92.8206 66.8297 92.8893 66.8297 92.934H67.2797ZM67.0997 93.114H67.7297V92.664H67.0997V93.114ZM67.9405 92.8103L66.7593 89.649L66.3377 89.8065L67.519 92.9678L67.9405 92.8103ZM66.5485 89.5028H63.2635V89.9528H66.5485V89.5028ZM63.0522 89.6503L61.8935 92.8116L62.316 92.9665L63.4748 89.8052L63.0522 89.6503ZM62.1047 93.114H62.7235V92.664H62.1047V93.114ZM62.7235 93.114C62.6616 93.114 62.6185 93.0853 62.5953 93.0622C62.5722 93.039 62.5435 92.996 62.5435 92.934H62.9935C62.9935 92.8496 62.9535 92.784 62.9135 92.744C62.8735 92.704 62.8079 92.664 62.7235 92.664V93.114ZM62.5435 92.934C62.5435 92.8713 62.5704 92.8297 62.5774 92.8192C62.5887 92.8024 62.6005 92.7905 62.6104 92.7823C62.626 92.7692 62.6642 92.7428 62.7235 92.7428V93.1928C62.8053 93.1928 62.866 93.1551 62.8985 93.128C62.9168 93.1127 62.9357 93.0931 62.9518 93.0689C62.9638 93.051 62.9935 93.0024 62.9935 92.934H62.5435ZM62.7235 92.7428H61.4297V93.1928H62.7235V92.7428ZM61.4297 92.7428C61.4668 92.7428 61.5146 92.7569 61.5537 92.796C61.586 92.8283 61.6097 92.8761 61.6097 92.934H61.1597C61.1597 93.0695 61.2717 93.1928 61.4297 93.1928V92.7428ZM61.6097 92.934C61.6097 92.9562 61.6046 93.0025 61.5674 93.0471C61.5242 93.099 61.467 93.114 61.4297 93.114V92.664C61.3588 92.664 61.279 92.6903 61.2217 92.759C61.1705 92.8206 61.1597 92.8893 61.1597 92.934H61.6097ZM61.4297 93.114H62.0147V92.664H61.4297V93.114ZM62.2261 92.9661L65.0161 85.3161L64.5934 85.1619L61.8034 92.8119L62.2261 92.9661ZM64.8047 85.014H64.321V85.464H64.8047V85.014ZM64.6608 85.2072L63.0745 89.5722L63.4975 89.7259L65.0837 85.3609L64.6608 85.2072ZM63.286 89.874H66.5147V89.424H63.286V89.874ZM66.7253 89.5698L65.0828 85.2048L64.6617 85.3633L66.3042 89.7283L66.7253 89.5698ZM71.3255 85.1603V84.9353H71.3069L71.2885 84.9383L71.3255 85.1603ZM76.8493 85.3515V90.2228H77.2993V85.3515H76.8493ZM76.8493 90.2228C76.8493 91.2527 76.5986 91.9091 76.2098 92.3089C75.8222 92.7075 75.2604 92.889 74.5543 92.889V93.339C75.3332 93.339 76.0313 93.138 76.5325 92.6226C77.0325 92.1083 77.2993 91.3191 77.2993 90.2228H76.8493ZM74.5543 92.889C73.822 92.889 73.1905 92.7111 72.7431 92.3013C72.2995 91.8948 72.0005 91.2266 72.0005 90.1665H71.5505C71.5505 91.3115 71.8759 92.117 72.4392 92.633C72.9987 93.1457 73.7565 93.339 74.5543 93.339V92.889ZM72.0005 90.1665V85.3515H71.5505V90.1665H72.0005ZM72.0005 85.3515C72.0005 85.2861 71.9874 85.1861 71.9079 85.1066C71.8284 85.0272 71.7284 85.014 71.663 85.014V85.464C71.6764 85.464 71.6326 85.4677 71.5897 85.4248C71.5468 85.3819 71.5505 85.3381 71.5505 85.3515H72.0005ZM71.663 85.014H71.3255V85.464H71.663V85.014ZM71.3255 85.014C71.3902 85.014 71.4941 85.0644 71.5035 85.1866C71.5079 85.2437 71.4866 85.2963 71.4518 85.3328C71.4183 85.3678 71.3817 85.379 71.3625 85.3822L71.2885 84.9383C71.1813 84.9562 71.0415 85.049 71.0548 85.2211C71.067 85.3799 71.2047 85.464 71.3255 85.464V85.014ZM71.3255 85.3853H72.6755V84.9353H71.3255V85.3853ZM72.6755 85.3853C72.6337 85.3853 72.5835 85.3689 72.5442 85.3278C72.5078 85.2895 72.4927 85.2421 72.4927 85.1996C72.4927 85.1572 72.5078 85.1098 72.5442 85.0715C72.5835 85.0303 72.6337 85.014 72.6755 85.014V85.464C72.7454 85.464 72.8168 85.4379 72.8701 85.3819C72.9206 85.3289 72.9427 85.2618 72.9427 85.1996C72.9427 85.1375 72.9206 85.0704 72.8701 85.0174C72.8168 84.9614 72.7454 84.9353 72.6755 84.9353V85.3853ZM72.6755 85.014H72.3605V85.464H72.6755V85.014ZM72.3605 85.014C72.2952 85.014 72.1951 85.0272 72.1156 85.1066C72.0362 85.1861 72.023 85.2861 72.023 85.3515H72.473C72.473 85.3381 72.4767 85.3819 72.4338 85.4248C72.3909 85.4677 72.3472 85.464 72.3605 85.464V85.014ZM72.023 85.3515V90.2678H72.473V85.3515H72.023ZM72.023 90.2678C72.023 91.4679 72.3054 92.2358 72.7953 92.6983C73.2838 93.1593 73.9315 93.2715 74.5543 93.2715V92.8215C73.9733 92.8215 73.4679 92.7144 73.1042 92.371C72.7419 92.0291 72.473 91.4076 72.473 90.2678H72.023ZM74.5543 93.2715C75.2857 93.2715 75.9641 93.0915 76.4576 92.5948C76.9508 92.0985 77.2205 91.3249 77.2205 90.2228H76.7705C76.7705 91.2581 76.5171 91.8965 76.1384 92.2776C75.7601 92.6584 75.2179 92.8215 74.5543 92.8215V93.2715ZM77.2205 90.2228V85.3515H76.7705V90.2228H77.2205ZM77.2205 85.3515C77.2205 85.2861 77.2074 85.1861 77.1279 85.1066C77.0484 85.0272 76.9484 85.014 76.883 85.014V85.464C76.8964 85.464 76.8526 85.4677 76.8097 85.4248C76.7668 85.3819 76.7705 85.3381 76.7705 85.3515H77.2205ZM76.883 85.014H76.4668V85.464H76.883V85.014ZM76.4668 85.014C76.4939 85.014 76.5371 85.0225 76.577 85.0574C76.6167 85.0921 76.6412 85.1437 76.6412 85.1996C76.6412 85.2556 76.6167 85.3072 76.577 85.3419C76.5371 85.3768 76.4939 85.3853 76.4668 85.3853V84.9353C76.3379 84.9353 76.1912 85.0284 76.1912 85.1996C76.1912 85.3709 76.3379 85.464 76.4668 85.464V85.014ZM76.4668 85.3853H77.6143V84.9353H76.4668V85.3853ZM77.6143 85.3853C77.5725 85.3853 77.5222 85.3689 77.483 85.3278C77.4466 85.2895 77.4315 85.2421 77.4315 85.1996C77.4315 85.1572 77.4466 85.1098 77.483 85.0715C77.5222 85.0303 77.5725 85.014 77.6143 85.014V85.464C77.6842 85.464 77.7556 85.4379 77.8088 85.3819C77.8593 85.3289 77.8815 85.2618 77.8815 85.1996C77.8815 85.1375 77.8593 85.0704 77.8088 85.0174C77.7556 84.9614 77.6842 84.9353 77.6143 84.9353V85.3853ZM77.6143 85.014H77.1868V85.464H77.6143V85.014ZM77.1868 85.014C77.1214 85.014 77.0214 85.0272 76.9419 85.1066C76.8624 85.1861 76.8493 85.2861 76.8493 85.3515H77.2993C77.2993 85.3381 77.303 85.3819 77.2601 85.4248C77.2172 85.4677 77.1734 85.464 77.1868 85.464V85.014ZM81.3702 85.239V85.014L81.3656 85.0141L81.3702 85.239ZM80.5602 86.4878V86.7128H80.7852V86.4878H80.5602ZM80.4814 86.4878H80.2564V86.7128H80.4814V86.4878ZM80.4814 85.1603V84.9353H80.2564V85.1603H80.4814ZM86.4327 85.1603H86.6577V84.9353H86.4327V85.1603ZM86.4327 86.4878V86.7128H86.6577V86.4878H86.4327ZM86.3539 86.4878H86.1289V86.7128H86.3539V86.4878ZM82.6639 92.7428C82.6911 92.7428 82.7343 92.7513 82.7741 92.7861C82.8138 92.8209 82.8383 92.8724 82.8383 92.9284C82.8383 92.9844 82.8138 93.0359 82.7741 93.0707C82.7343 93.1055 82.6911 93.114 82.6639 93.114V92.664C82.5351 92.664 82.3883 92.7572 82.3883 92.9284C82.3883 93.0996 82.5351 93.1928 82.6639 93.1928V92.7428ZM82.6639 93.114H83.0689V92.664H82.6639V93.114ZM83.0689 93.114C83.1343 93.114 83.2344 93.1009 83.3138 93.0214C83.3933 92.9419 83.4064 92.8419 83.4064 92.7765H82.9564C82.9564 92.7899 82.9527 92.7461 82.9956 92.7032C83.0385 92.6603 83.0823 92.664 83.0689 92.664V93.114ZM83.4064 92.7765V85.3515H82.9564V92.7765H83.4064ZM83.4064 85.3515C83.4064 85.2861 83.3933 85.1861 83.3138 85.1066C83.2344 85.0272 83.1343 85.014 83.0689 85.014V85.464C83.0823 85.464 83.0385 85.4677 82.9956 85.4248C82.9527 85.3819 82.9564 85.3381 82.9564 85.3515H83.4064ZM83.0689 85.014H81.3702V85.464H83.0689V85.014ZM81.3656 85.0141C81.0374 85.0208 80.7732 85.1368 80.5924 85.3348C80.4142 85.5298 80.3352 85.7842 80.3352 86.0378H80.7852C80.7852 85.8751 80.8356 85.7358 80.9246 85.6383C81.011 85.5437 81.1518 85.4685 81.3748 85.464L81.3656 85.0141ZM80.3352 86.0378V86.4878H80.7852V86.0378H80.3352ZM80.5602 86.2628H80.4814V86.7128H80.5602V86.2628ZM80.7064 86.4878V85.1603H80.2564V86.4878H80.7064ZM80.4814 85.3853H86.4327V84.9353H80.4814V85.3853ZM86.2077 85.1603V86.4878H86.6577V85.1603H86.2077ZM86.4327 86.2628H86.3539V86.7128H86.4327V86.2628ZM86.5789 86.4878V86.0265H86.1289V86.4878H86.5789ZM86.5789 86.0265C86.5789 85.7707 86.4957 85.515 86.3116 85.3216C86.1252 85.1256 85.8547 85.014 85.5214 85.014V85.464C85.7507 85.464 85.8965 85.5381 85.9856 85.6318C86.0772 85.728 86.1289 85.8661 86.1289 86.0265H86.5789ZM85.5214 85.014H83.7664V85.464H85.5214V85.014ZM83.7664 85.014C83.7011 85.014 83.601 85.0272 83.5216 85.1066C83.4421 85.1861 83.4289 85.2861 83.4289 85.3515H83.8789C83.8789 85.3381 83.8827 85.3819 83.8398 85.4248C83.7969 85.4677 83.7531 85.464 83.7664 85.464V85.014ZM83.4289 85.3515V92.7765H83.8789V85.3515H83.4289ZM83.4289 92.7765C83.4289 92.8419 83.4421 92.9419 83.5216 93.0214C83.601 93.1009 83.7011 93.114 83.7664 93.114V92.664C83.7531 92.664 83.7969 92.6603 83.8398 92.7032C83.8827 92.7461 83.8789 92.7899 83.8789 92.7765H83.4289ZM83.7664 93.114H84.2052V92.664H83.7664V93.114ZM84.2052 93.114C84.1634 93.114 84.1131 93.0977 84.0739 93.0565C84.0375 93.0183 84.0224 92.9709 84.0224 92.9284C84.0224 92.8859 84.0375 92.8385 84.0739 92.8003C84.1131 92.7591 84.1634 92.7428 84.2052 92.7428V93.1928C84.2751 93.1928 84.3465 93.1666 84.3998 93.1106C84.4502 93.0576 84.4724 92.9906 84.4724 92.9284C84.4724 92.8662 84.4502 92.7992 84.3998 92.7462C84.3465 92.6902 84.2751 92.664 84.2052 92.664V93.114ZM84.2052 92.7428H82.6639V93.1928H84.2052V92.7428ZM92.0813 89.4015H92.3063V89.3416L92.2766 89.2897L92.0813 89.4015ZM89.6963 85.239L89.8916 85.1272L89.8267 85.014H89.6963V85.239ZM90.1913 85.239V85.014H89.7995L89.997 85.3524L90.1913 85.239ZM92.5088 89.2103L92.3145 89.3237L92.5112 89.6608L92.7044 89.3216L92.5088 89.2103ZM94.7701 85.239L94.9656 85.3504L95.1571 85.014H94.7701V85.239ZM94.8713 85.239V85.014H94.741L94.6762 85.1271L94.8713 85.239ZM92.5426 89.3003L92.3474 89.1884L92.3176 89.2403V89.3003H92.5426ZM92.3063 92.7765V89.4015H91.8563V92.7765H92.3063ZM92.2766 89.2897L89.8916 85.1272L89.5011 85.3509L91.8861 89.5134L92.2766 89.2897ZM89.6963 85.014H89.1001V85.464H89.6963V85.014ZM89.1001 85.014C89.1631 85.014 89.2193 85.0451 89.2537 85.0904C89.2834 85.1293 89.2913 85.17 89.2913 85.1996C89.2913 85.2292 89.2834 85.27 89.2537 85.3089C89.2193 85.3542 89.1631 85.3853 89.1001 85.3853V84.9353C89.0146 84.9353 88.9415 84.9762 88.8958 85.0362C88.8549 85.0899 88.8413 85.1504 88.8413 85.1996C88.8413 85.2489 88.8549 85.3094 88.8958 85.3631C88.9415 85.4231 89.0146 85.464 89.1001 85.464V85.014ZM89.1001 85.3853H90.7201V84.9353H89.1001V85.3853ZM90.7201 85.3853C90.6783 85.3853 90.628 85.3689 90.5888 85.3278C90.5524 85.2895 90.5373 85.2421 90.5373 85.1996C90.5373 85.1572 90.5524 85.1098 90.5888 85.0715C90.628 85.0303 90.6783 85.014 90.7201 85.014V85.464C90.79 85.464 90.8614 85.4379 90.9147 85.3819C90.9651 85.3289 90.9873 85.2618 90.9873 85.1996C90.9873 85.1375 90.9651 85.0704 90.9147 85.0174C90.8614 84.9614 90.79 84.9353 90.7201 84.9353V85.3853ZM90.7201 85.014H90.1913V85.464H90.7201V85.014ZM89.997 85.3524L92.3145 89.3237L92.7032 89.0969L90.3857 85.1256L89.997 85.3524ZM92.7044 89.3216L94.9656 85.3504L94.5746 85.1277L92.3133 89.0989L92.7044 89.3216ZM94.7701 85.014H94.1401V85.464H94.7701V85.014ZM94.1401 85.014C94.2305 85.014 94.3111 85.086 94.3181 85.1836C94.3216 85.2331 94.3053 85.2902 94.2609 85.3335C94.2167 85.3767 94.1668 85.3853 94.1401 85.3853V84.9353C94.0796 84.9353 94.0058 84.9537 93.9465 85.0116C93.887 85.0697 93.8643 85.1465 93.8693 85.2157C93.879 85.3526 93.9934 85.464 94.1401 85.464V85.014ZM94.1401 85.3853H95.5801V84.9353H94.1401V85.3853ZM95.5801 85.3853C95.5171 85.3853 95.4609 85.3542 95.4264 85.3089C95.3967 85.27 95.3888 85.2292 95.3888 85.1996C95.3888 85.17 95.3967 85.1293 95.4264 85.0904C95.4609 85.0451 95.5171 85.014 95.5801 85.014V85.464C95.6656 85.464 95.7387 85.4231 95.7844 85.3631C95.8253 85.3094 95.8388 85.2489 95.8388 85.1996C95.8388 85.1504 95.8253 85.0899 95.7844 85.0362C95.7387 84.9762 95.6656 84.9353 95.5801 84.9353V85.3853ZM95.5801 85.014H94.8713V85.464H95.5801V85.014ZM94.6762 85.1271L92.3474 89.1884L92.7378 89.4122L95.0665 85.3509L94.6762 85.1271ZM92.3176 89.3003V92.7765H92.7676V89.3003H92.3176ZM92.3176 92.7765C92.3176 92.8419 92.3307 92.9419 92.4102 93.0214C92.4897 93.1009 92.5897 93.114 92.6551 93.114V92.664C92.6417 92.664 92.6855 92.6603 92.7284 92.7032C92.7713 92.7461 92.7676 92.7899 92.7676 92.7765H92.3176ZM92.6551 93.114H93.0826V92.664H92.6551V93.114ZM93.0826 93.114C93.0408 93.114 92.9905 93.0977 92.9513 93.0565C92.9149 93.0183 92.8998 92.9709 92.8998 92.9284C92.8998 92.8859 92.9149 92.8385 92.9513 92.8003C92.9905 92.7591 93.0408 92.7428 93.0826 92.7428V93.1928C93.1525 93.1928 93.2239 93.1666 93.2772 93.1106C93.3276 93.0576 93.3498 92.9906 93.3498 92.9284C93.3498 92.8662 93.3276 92.7992 93.2772 92.7462C93.2239 92.6902 93.1525 92.664 93.0826 92.664V93.114ZM93.0826 92.7428H91.5413V93.1928H93.0826V92.7428ZM91.5413 92.7428C91.5831 92.7428 91.6334 92.7591 91.6726 92.8003C91.709 92.8385 91.7242 92.8859 91.7242 92.9284C91.7242 92.9709 91.709 93.0183 91.6726 93.0565C91.6334 93.0977 91.5831 93.114 91.5413 93.114V92.664C91.4714 92.664 91.4001 92.6902 91.3468 92.7462C91.2963 92.7992 91.2742 92.8662 91.2742 92.9284C91.2742 92.9906 91.2963 93.0576 91.3468 93.1106C91.4001 93.1666 91.4714 93.1928 91.5413 93.1928V92.7428ZM91.5413 93.114H91.9688V92.664H91.5413V93.114ZM91.9688 93.114C92.0342 93.114 92.1343 93.1009 92.2137 93.0214C92.2932 92.9419 92.3063 92.8419 92.3063 92.7765H91.8563C91.8563 92.7899 91.8526 92.7461 91.8955 92.7032C91.9384 92.6603 91.9822 92.664 91.9688 92.664V93.114Z" fill="white" mask="url(#path-1-outside-1_333_90)"/>
<path d="M24.3611 104.006V98.4934H26.6606C27.2539 98.4934 27.7185 98.6141 28.0545 98.8556C28.3905 99.0971 28.5585 99.4462 28.5585 99.903C28.5585 100.202 28.4876 100.454 28.3459 100.659C28.2041 100.864 28.0073 101.019 27.7553 101.124C27.5085 101.223 27.2303 101.273 26.9205 101.273L27.0623 101.116C27.4403 101.116 27.7631 101.171 28.0309 101.281C28.2986 101.391 28.5008 101.551 28.6373 101.761C28.779 101.971 28.8499 102.234 28.8499 102.549C28.8499 103.011 28.6819 103.371 28.3459 103.628C28.0099 103.88 27.5006 104.006 26.8181 104.006H24.3611ZM24.7628 103.659H26.8181C27.3484 103.659 27.7526 103.57 28.0309 103.392C28.3091 103.208 28.4483 102.916 28.4483 102.517C28.4483 102.124 28.3091 101.838 28.0309 101.659C27.7526 101.475 27.3484 101.383 26.8181 101.383H24.7155V101.037H26.6449C27.1226 101.037 27.4928 100.945 27.7553 100.761C28.0178 100.578 28.149 100.302 28.149 99.9345C28.149 99.5722 28.0178 99.2992 27.7553 99.1155C27.4928 98.9317 27.1226 98.8399 26.6449 98.8399H24.7628V103.659ZM31.7633 104.037C31.3695 104.037 31.0178 103.948 30.708 103.77C30.4035 103.591 30.1594 103.344 29.9756 103.029C29.7971 102.714 29.7079 102.355 29.7079 101.95C29.7079 101.541 29.7971 101.181 29.9756 100.872C30.1594 100.557 30.4035 100.31 30.708 100.131C31.0178 99.9529 31.3695 99.8636 31.7633 99.8636C32.157 99.8636 32.5088 99.9529 32.8185 100.131C33.1283 100.31 33.3724 100.557 33.5509 100.872C33.7294 101.181 33.8186 101.541 33.8186 101.95C33.8186 102.355 33.7294 102.714 33.5509 103.029C33.3724 103.344 33.1283 103.591 32.8185 103.77C32.5088 103.948 32.157 104.037 31.7633 104.037ZM31.7633 103.683C32.0783 103.683 32.3618 103.612 32.6138 103.47C32.8658 103.323 33.0626 103.119 33.2044 102.856C33.3461 102.594 33.417 102.292 33.417 101.95C33.417 101.604 33.3461 101.302 33.2044 101.045C33.0626 100.782 32.8658 100.58 32.6138 100.438C32.3618 100.291 32.0783 100.218 31.7633 100.218C31.4483 100.218 31.1648 100.291 30.9128 100.438C30.666 100.58 30.4691 100.782 30.3221 101.045C30.1804 101.302 30.1095 101.604 30.1095 101.95C30.1095 102.292 30.1804 102.594 30.3221 102.856C30.4691 103.119 30.666 103.323 30.9128 103.47C31.1648 103.612 31.4483 103.683 31.7633 103.683ZM36.6231 104.037C36.2398 104.037 35.8933 103.951 35.5836 103.777C35.2791 103.599 35.0376 103.352 34.8591 103.037C34.6806 102.722 34.5913 102.36 34.5913 101.95C34.5913 101.536 34.6806 101.173 34.8591 100.864C35.0376 100.549 35.2791 100.305 35.5836 100.131C35.8933 99.9529 36.2398 99.8636 36.6231 99.8636C36.9853 99.8636 37.3108 99.9476 37.5996 100.116C37.8936 100.284 38.1246 100.522 38.2926 100.832C38.4658 101.142 38.5524 101.515 38.5524 101.95C38.5524 102.376 38.4684 102.746 38.3004 103.061C38.1324 103.376 37.9014 103.617 37.6074 103.785C37.3187 103.953 36.9906 104.037 36.6231 104.037ZM36.6467 103.683C36.9617 103.683 37.2426 103.612 37.4893 103.47C37.7413 103.323 37.9382 103.119 38.0799 102.856C38.2269 102.594 38.3004 102.292 38.3004 101.95C38.3004 101.604 38.2269 101.302 38.0799 101.045C37.9382 100.782 37.7413 100.58 37.4893 100.438C37.2426 100.291 36.9617 100.218 36.6467 100.218C36.3317 100.218 36.0482 100.291 35.7962 100.438C35.5494 100.58 35.3526 100.782 35.2056 101.045C35.0638 101.302 34.9929 101.604 34.9929 101.95C34.9929 102.292 35.0638 102.594 35.2056 102.856C35.3526 103.119 35.5494 103.323 35.7962 103.47C36.0482 103.612 36.3317 103.683 36.6467 103.683ZM38.3083 104.006V102.659L38.3792 101.943L38.3004 101.226V98.1626H38.6942V104.006H38.3083ZM40.2598 105.565C40.0708 105.565 39.8923 105.534 39.7243 105.471C39.5615 105.408 39.4224 105.316 39.3069 105.195L39.5038 104.896C39.6088 105.006 39.7217 105.087 39.8424 105.14C39.9684 105.192 40.1102 105.219 40.2677 105.219C40.4567 105.219 40.622 105.166 40.7638 105.061C40.9108 104.956 41.0473 104.764 41.1733 104.486L41.4568 103.856L41.5119 103.785L43.2523 99.8951H43.6539L41.5434 104.565C41.4332 104.817 41.3124 105.014 41.1812 105.156C41.0552 105.303 40.916 105.408 40.7638 105.471C40.6115 105.534 40.4435 105.565 40.2598 105.565ZM41.4489 104.108L39.5432 99.8951H39.9605L41.693 103.762L41.4489 104.108ZM47.9076 104.045C47.5611 104.045 47.2514 103.987 46.9784 103.872C46.7106 103.756 46.498 103.596 46.3405 103.392C46.1883 103.182 46.1121 102.94 46.1121 102.667C46.1121 102.441 46.162 102.234 46.2618 102.045C46.3615 101.851 46.5243 101.659 46.75 101.47C46.981 101.276 47.2881 101.071 47.6714 100.856C48.0074 100.662 48.2725 100.494 48.4668 100.352C48.661 100.21 48.7975 100.074 48.8763 99.9424C48.955 99.8111 48.9944 99.6694 48.9944 99.5171C48.9944 99.2914 48.9183 99.1102 48.766 98.9737C48.619 98.8372 48.4064 98.769 48.1281 98.769C47.8341 98.769 47.6031 98.8451 47.4351 98.9974C47.2724 99.1444 47.191 99.3412 47.191 99.588C47.191 99.7035 47.2094 99.8137 47.2461 99.9187C47.2829 100.024 47.3485 100.142 47.443 100.273C47.5428 100.399 47.6793 100.557 47.8525 100.746L50.7741 103.825L50.5379 104.085L47.5296 100.919C47.3459 100.725 47.2015 100.554 47.0965 100.407C46.9915 100.26 46.918 100.123 46.876 99.9975C46.8393 99.8662 46.8209 99.7297 46.8209 99.588C46.8209 99.3622 46.8734 99.1654 46.9784 98.9974C47.0886 98.8294 47.2409 98.6981 47.4351 98.6036C47.6346 98.5091 47.8656 98.4619 48.1281 98.4619C48.3749 98.4619 48.5875 98.5039 48.766 98.5879C48.9498 98.6719 49.0915 98.7926 49.1913 98.9501C49.291 99.1024 49.3409 99.2887 49.3409 99.5092C49.3409 99.7035 49.2936 99.8846 49.1991 100.053C49.1099 100.215 48.9576 100.381 48.7424 100.549C48.5271 100.711 48.2331 100.898 47.8604 101.108C47.5139 101.307 47.2409 101.488 47.0414 101.651C46.8419 101.814 46.7001 101.974 46.6161 102.132C46.5374 102.284 46.498 102.452 46.498 102.636C46.498 102.851 46.5584 103.04 46.6791 103.203C46.7999 103.365 46.9653 103.491 47.1753 103.581C47.3905 103.67 47.6399 103.714 47.9234 103.714C48.3014 103.714 48.6374 103.638 48.9314 103.486C49.2254 103.329 49.4721 103.092 49.6716 102.777C49.8711 102.462 50.0155 102.066 50.1048 101.588L50.4276 101.691C50.3279 102.21 50.1625 102.646 49.9315 102.998C49.7005 103.344 49.4144 103.607 49.0731 103.785C48.7319 103.959 48.3434 104.045 47.9076 104.045ZM54.2006 101.21H57.1852V101.572H54.2006V101.21ZM54.2479 104.006H53.8462V98.4934H57.5317V98.8556H54.2479V104.006ZM61.0946 104.006V103.069L61.0788 102.927V101.383C61.0788 101 60.9738 100.709 60.7638 100.509C60.5591 100.31 60.2572 100.21 59.8582 100.21C59.5747 100.21 59.3096 100.26 59.0628 100.36C58.8213 100.454 58.6139 100.578 58.4407 100.73L58.2438 100.446C58.4486 100.263 58.6953 100.121 58.9841 100.021C59.2728 99.9161 59.5747 99.8636 59.8897 99.8636C60.3989 99.8636 60.7901 99.9922 61.0631 100.249C61.3361 100.507 61.4726 100.89 61.4726 101.399V104.006H61.0946ZM59.6141 104.037C59.3096 104.037 59.0444 103.99 58.8187 103.896C58.5982 103.796 58.4276 103.657 58.3068 103.478C58.1913 103.3 58.1336 103.095 58.1336 102.864C58.1336 102.654 58.1808 102.465 58.2753 102.297C58.3751 102.124 58.5378 101.985 58.7636 101.88C58.9893 101.769 59.2912 101.714 59.6692 101.714H61.1812V102.021H59.6771C59.2518 102.021 58.9526 102.1 58.7793 102.258C58.6113 102.415 58.5273 102.612 58.5273 102.848C58.5273 103.111 58.6271 103.321 58.8266 103.478C59.0261 103.636 59.3069 103.714 59.6692 103.714C60.0157 103.714 60.3071 103.636 60.5433 103.478C60.7848 103.321 60.9633 103.092 61.0788 102.793L61.1891 103.061C61.0788 103.36 60.8898 103.599 60.6221 103.777C60.3596 103.951 60.0236 104.037 59.6141 104.037ZM64.725 104.037C64.326 104.037 63.969 103.948 63.654 103.77C63.3443 103.591 63.0975 103.344 62.9138 103.029C62.7353 102.714 62.646 102.355 62.646 101.95C62.646 101.541 62.7353 101.179 62.9138 100.864C63.0975 100.549 63.3443 100.305 63.654 100.131C63.969 99.9529 64.326 99.8636 64.725 99.8636C65.0558 99.8636 65.355 99.9266 65.6228 100.053C65.8958 100.179 66.1163 100.368 66.2843 100.62L65.9929 100.832C65.8459 100.622 65.6621 100.467 65.4416 100.368C65.2211 100.268 64.9823 100.218 64.725 100.218C64.4048 100.218 64.116 100.291 63.8588 100.438C63.6068 100.58 63.4073 100.782 63.2603 101.045C63.1185 101.302 63.0476 101.604 63.0476 101.95C63.0476 102.297 63.1185 102.601 63.2603 102.864C63.4073 103.121 63.6068 103.323 63.8588 103.47C64.116 103.612 64.4048 103.683 64.725 103.683C64.9823 103.683 65.2211 103.633 65.4416 103.533C65.6621 103.434 65.8459 103.279 65.9929 103.069L66.2843 103.281C66.1163 103.533 65.8958 103.722 65.6228 103.848C65.355 103.974 65.0558 104.037 64.725 104.037ZM69.0633 104.037C68.6486 104.037 68.2811 103.948 67.9608 103.77C67.6458 103.591 67.3965 103.344 67.2127 103.029C67.0342 102.714 66.945 102.355 66.945 101.95C66.945 101.541 67.029 101.181 67.197 100.872C67.3702 100.557 67.6065 100.31 67.9057 100.131C68.205 99.9529 68.541 99.8636 68.9137 99.8636C69.2865 99.8636 69.6198 99.9502 69.9138 100.123C70.2131 100.297 70.4467 100.541 70.6147 100.856C70.788 101.166 70.8746 101.525 70.8746 101.935C70.8746 101.95 70.872 101.969 70.8667 101.99C70.8667 102.006 70.8667 102.024 70.8667 102.045H67.2363V101.738H70.6541L70.4966 101.887C70.5018 101.567 70.4336 101.281 70.2918 101.029C70.1553 100.772 69.969 100.572 69.7327 100.431C69.4965 100.284 69.2235 100.21 68.9137 100.21C68.6092 100.21 68.3362 100.284 68.0947 100.431C67.8585 100.572 67.6721 100.772 67.5356 101.029C67.3991 101.281 67.3308 101.57 67.3308 101.895V101.966C67.3308 102.302 67.4043 102.601 67.5513 102.864C67.7036 103.121 67.911 103.323 68.1735 103.47C68.436 103.612 68.7352 103.683 69.0712 103.683C69.3337 103.683 69.5778 103.636 69.8036 103.541C70.0346 103.447 70.2288 103.302 70.3863 103.108L70.6147 103.368C70.4362 103.588 70.2105 103.756 69.9375 103.872C69.6697 103.982 69.3783 104.037 69.0633 104.037Z" fill="white"/>
<path fill-rule="evenodd" clip-rule="evenodd" d="M45.2007 0.0174538C45.1291 0.0910433 45.1089 0.62049 45.1561 1.19378C45.203 1.7673 45.1643 2.34566 45.0698 2.4794C44.6877 3.01986 38.984 6.75309 38.5405 6.75309C38.278 6.75309 37.8244 6.50963 37.5323 6.21219C37.1922 5.86605 37.0011 5.78101 37.0011 5.976C37.0011 6.43869 38.0675 7.19375 38.7211 7.19375C39.0863 7.19375 40.2559 6.5418 41.8831 5.43135C45.3714 3.05027 45.6611 2.77486 45.6297 1.87063C45.5949 0.870121 45.3595 -0.14625 45.2007 0.0174538ZM48.4823 1.73028C48.4743 2.05791 48.5857 2.60322 48.7296 2.94209C49.2021 4.05408 50.6112 6.04761 51.2546 6.51426C52.024 7.07191 54.752 7.50045 56.5583 7.3471C58.0111 7.22393 58.7986 7.44228 60.0675 8.32051C61.1958 9.10135 61.5292 9.85178 61.9719 12.6087C62.3821 15.1619 63.3781 19.475 65.403 27.4639C66.1862 30.554 66.9956 33.8754 67.2017 34.8449C67.4079 35.8143 67.6141 36.4943 67.66 36.3561C67.7993 35.9364 66.7123 30.8188 64.9287 23.498C63.9989 19.6808 63.0166 15.3183 62.7462 13.8036C61.9902 9.57109 61.9247 9.37213 60.984 8.46019C59.4726 6.99435 58.793 6.76654 56.0105 6.79209C52.6211 6.82338 51.9214 6.67091 50.9556 5.69067C50.0037 4.72476 49.1731 3.33845 48.7817 2.0632C48.5448 1.29161 48.4942 1.23543 48.4823 1.73028ZM49.2365 9.45211C49.4035 10.8708 49.1517 12.4816 48.7629 12.4816C48.5952 12.4816 48.0277 12.0778 47.5018 11.584C46.287 10.4436 45.1635 10.0153 41.5361 9.31022C39.1313 8.84268 38.3977 8.77879 37.3795 8.94734C35.8387 9.20292 34.8233 9.68522 33.948 10.5775C31.9521 12.6118 31.6968 15.7147 32.5765 27.2436C32.7476 29.4854 32.8883 32.7383 32.8889 34.4723C32.89 36.5176 32.9664 37.5772 33.1068 37.4888C33.4263 37.2877 33.3727 32.6249 32.9791 26.4028C32.7898 23.4116 32.6719 19.3283 32.7169 17.3288C32.7929 13.9646 32.8413 13.6 33.3666 12.4417C34.3489 10.2768 36.2569 9.25646 38.9435 9.4596C42.8528 9.75506 45.8789 10.6412 47.3521 11.9215C48.621 13.0247 48.9912 13.1325 49.3256 12.4962C49.6006 11.9729 49.5941 9.44969 49.3163 8.84621C49.1731 8.53489 49.1495 8.71291 49.2365 9.45211ZM57.4507 12.9661C57.6481 14.3141 58.7796 16.8384 60.0474 18.7588C61.9783 21.6838 62.154 24.1367 60.6004 26.481C60.0154 27.3639 59.9513 27.7992 60.4868 27.2539C60.7953 26.9397 60.4611 32.0974 60.0377 34.1839C59.841 35.1533 59.4007 36.6901 59.0593 37.599C58.3032 39.6126 57.9996 40.924 57.9925 42.2076C57.9853 43.5542 58.1904 43.2162 58.4312 41.4854C58.542 40.6889 58.9739 39.1975 59.391 38.1714C60.5701 35.2703 60.8302 33.8986 60.9234 30.0843C60.9994 26.9768 61.0597 26.5313 61.5506 25.4574C61.9552 24.5723 62.0937 23.9039 62.0937 22.837C62.0937 21.2013 61.743 20.353 59.8276 17.3588C59.1794 16.3453 58.4494 14.9572 58.2056 14.2742C57.5232 12.3637 57.3077 11.9905 57.4507 12.9661ZM37.3265 21.0744C37.6428 22.1787 39.4645 26.7664 40.7386 29.6672C42.8604 34.4983 42.7635 35.4737 39.8061 39.0536C34.0875 45.9758 31.7496 52.8889 33.0157 59.1314C33.935 63.6633 36.2318 67.1643 42.7394 73.9531C44.0754 75.3466 45.4239 76.8817 45.7364 77.3642C46.0488 77.8467 46.3043 78.1424 46.3043 78.0212C46.3043 77.5415 45.0246 75.9102 42.4214 73.0718C38.106 68.3662 36.6431 66.4868 35.2186 63.818C32.4848 58.6965 32.6172 52.4812 35.5894 46.3993C36.7389 44.0473 37.7683 42.4724 40.0214 39.6187C42.6127 36.3367 43.0927 35.1888 42.6248 33.3927C42.4854 32.8584 41.7163 30.9341 40.9154 29.1164C40.1147 27.2987 39.0335 24.7208 38.5132 23.3878C37.6188 21.0971 36.9717 19.8351 37.3265 21.0744ZM40.3814 23.4429C40.852 25.4331 42.6758 27.586 44.3154 28.0861C46.3677 28.7123 48.5898 28.1383 49.6636 26.7044C50.4758 25.6202 50.3057 25.5446 49.2609 26.5253C48.1 27.6153 47.0202 28.0002 45.6033 27.8292C43.6046 27.5882 41.9653 26.236 40.9532 23.9937C40.3782 22.7196 40.161 22.5105 40.3814 23.4429ZM62.114 38.5587C62.0677 40.3749 63.6733 44.3494 66.0347 48.2624C66.7602 49.4645 67.9663 51.746 68.7151 53.3324C69.4639 54.9187 70.0825 56.099 70.0898 55.9554C70.1199 55.3596 67.8419 50.3163 66.5256 48.0646C64.504 44.6065 63.1555 41.7255 62.6062 39.6921C62.3139 38.6092 62.124 38.1721 62.114 38.5587ZM32.5408 40.094C32.289 41.0848 31.7829 43.0499 31.4164 44.4611C30.7367 47.0786 30.5776 48.3364 29.9725 55.8862C29.7832 58.2492 29.4279 61.3049 29.1832 62.6769C28.704 65.3629 28.7534 66.1171 29.2843 64.2199C30.1283 61.2036 30.1921 60.7123 30.509 54.7846C30.7447 50.3795 31.2505 47.0737 32.3608 42.6817C32.7875 40.9942 33.1055 39.3162 33.0676 38.9529C33.0148 38.447 32.8915 38.7138 32.5408 40.094ZM58.6995 51.3144C58.799 52.6778 58.8382 54.9828 58.7867 56.437C58.6766 59.5403 58.4222 60.4249 56.38 64.8015C55.6148 66.4419 55.073 67.7839 55.1762 67.7839C55.5397 67.7839 58.767 60.8654 59.0595 59.459C59.4654 57.5085 59.1409 48.8357 58.6621 48.8357C58.5833 48.8357 58.6002 49.9512 58.6995 51.3144ZM41.9288 50.7953C42.1678 51.2067 43.2258 52.5264 44.2799 53.7281C47.1154 56.9609 49.5617 61.1624 54.6256 71.4966C56.2366 74.7841 57.5546 77.5098 57.5546 77.5539C57.5546 77.802 59.9721 82.8012 60.0524 82.7195C60.2242 82.5445 56.3482 73.6942 54.0421 68.9957C50.4383 61.653 47.4544 56.7142 45.0062 54.0392C43.9947 52.934 42.7907 51.5839 42.3308 51.0388C41.6196 50.196 41.5592 50.1597 41.9288 50.7953ZM31.2568 65.9041C30.8624 66.8651 30.868 67.5539 31.2747 68.1014C31.4493 68.3367 31.5923 68.6676 31.5923 68.8368C31.5923 69.0061 32.0549 69.578 32.62 70.1079L33.6477 71.0714L32.9986 71.0879L32.3496 71.1045L32.8796 71.4032C33.5308 71.7705 33.9722 71.626 33.9722 71.0454C33.9722 70.8053 34.1799 70.4373 34.4337 70.228C34.8244 69.9059 34.8564 69.7737 34.6425 69.3665C34.3052 68.7249 33.9311 68.752 34.0923 69.4064C34.1827 69.7735 34.1141 69.9691 33.8601 70.0685C33.6141 70.1645 33.4646 70.0738 33.39 69.7829C33.3249 69.5293 33.1576 69.4046 32.9772 69.4751C32.7377 69.5688 32.6741 69.3123 32.6741 68.2525C32.6741 66.9151 32.1609 65.14 31.7741 65.14C31.662 65.14 31.4292 65.4839 31.2568 65.9041ZM28.833 66.0764C28.8879 66.2279 29.1956 67.161 29.5166 68.1503C30.1449 70.0848 29.9682 69.9103 32.2228 70.82C32.9047 71.0952 32.1527 70.3677 31.4428 70.0656C30.9195 69.8428 30.6014 69.5049 30.3762 68.9314C29.4779 66.6463 29.0872 65.8082 28.9189 65.8047C28.817 65.8027 28.7782 65.925 28.833 66.0764ZM31.4182 66.9277C31.2661 67.4898 31.2892 67.7341 31.5125 67.9183C31.6754 68.0529 31.8087 68.2702 31.8087 68.401C31.8087 68.5321 31.8976 68.6952 32.0062 68.7635C32.2522 68.9184 32.0594 66.6494 31.8033 66.3769C31.7003 66.2672 31.5315 66.5089 31.4182 66.9277ZM33.7558 67.3091C33.7558 67.5224 34.4741 68.2245 34.6924 68.2245C34.9501 68.2245 34.8469 67.8249 34.4977 67.469C34.128 67.0927 33.7558 67.0125 33.7558 67.3091Z" fill="white"/>
<path d="M54.4837 5.0984C62.6924 6.54079 70.1829 10.5593 75.8019 16.5334C81.4208 22.5074 84.8565 30.1055 85.5813 38.1569C86.3061 46.2082 84.2799 54.2678 79.8139 61.0941C75.3478 67.9207 68.6891 73.1356 60.8627 75.9343" stroke="white" stroke-width="0.45"/>
<path d="M41.7475 77.9137C33.8138 76.8941 26.4285 73.3055 20.7131 67.6929C14.9976 62.0803 11.2642 54.7502 10.0801 46.8157C8.89588 38.8812 10.3256 30.7758 14.152 23.7305C17.9785 16.6852 23.9925 11.0849 31.2808 7.77979" stroke="white" stroke-width="0.45"/>
</svg>
