<svg width="60" height="64" viewBox="0 0 60 64" fill="none" xmlns="http://www.w3.org/2000/svg">
<path d="M51.7778 32V13.2456C51.7778 12.7682 51.5812 12.3104 51.2312 11.9728L41.4355 2.52722C41.0855 2.18963 40.6108 2 40.1158 2H3.86667C2.83574 2 2 2.80589 2 3.8V60.2C2 61.1942 2.83574 62 3.86667 62H23.7778" stroke="#154734" stroke-width="3" stroke-linecap="round" stroke-linejoin="round"/>
<path d="M14.4448 26.0005H39.3337M14.4448 14.0005H26.8893M14.4448 38.0005H23.7782" stroke="#154734" stroke-width="3" stroke-linecap="round" stroke-linejoin="round"/>
<path d="M53.3335 57.5L58.0002 62" stroke="#154734" stroke-width="3" stroke-linecap="round" stroke-linejoin="round"/>
<path d="M36.2222 50.0005C36.2222 54.9712 40.4007 59.0005 45.5555 59.0005C48.1374 59.0005 50.4742 57.9895 52.1638 56.356C53.8479 54.7279 54.8889 52.4815 54.8889 50.0005C54.8889 45.0298 50.7103 41.0005 45.5555 41.0005C40.4007 41.0005 36.2222 45.0298 36.2222 50.0005Z" stroke="#154734" stroke-width="3" stroke-linecap="round" stroke-linejoin="round"/>
<path d="M39.3335 2V12.2C39.3335 13.1941 40.1691 14 41.2002 14H51.778" stroke="#154734" stroke-width="3" stroke-linecap="round" stroke-linejoin="round"/>
</svg>
