<svg width="148" height="38" viewBox="0 0 148 38" fill="none" xmlns="http://www.w3.org/2000/svg">
<path d="M2.35938 37.1641C2.01042 37.1641 1.66667 37.099 1.32812 36.9688C1.07812 36.875 0.851562 36.7422 0.648438 36.5703C0.252604 36.2266 0.0546875 35.7786 0.0546875 35.2266C0.0546875 34.737 0.210938 34.2448 0.523438 33.75C1.1276 32.8021 1.98958 32.0391 3.10938 31.4609C4.32812 30.8411 5.67708 30.3698 7.15625 30.0469C7.16146 30.0417 7.16406 30.0339 7.16406 30.0234L7.375 29.4922C8.14062 27.4505 8.79167 25.4193 9.32812 23.3984C10.2865 19.8307 11.099 16.1198 11.7656 12.2656C12.3438 8.92708 12.7214 6.27083 12.8984 4.29688C12.9766 3.50521 13.0156 2.875 13.0156 2.40625C12.8073 2.27604 12.7031 2.09375 12.7031 1.85938C12.7031 1.77083 12.724 1.67969 12.7656 1.58594L12.8125 1.5C12.9115 1.30729 13.0365 1.17188 13.1875 1.09375C13.2292 1.06771 13.2734 1.04948 13.3203 1.03906C13.362 1.01823 13.4245 1.00781 13.5078 1.00781C13.5911 1.00781 13.6693 1.02083 13.7422 1.04688C13.8203 1.07292 13.8776 1.10417 13.9141 1.14062C13.9922 1.19792 14.0521 1.25781 14.0938 1.32031C14.1042 1.34635 14.1172 1.36979 14.1328 1.39062V1.39844C14.1536 1.4349 14.1667 1.46875 14.1719 1.5C14.1823 1.52604 14.1927 1.54948 14.2031 1.57031V1.58594C14.2448 1.75781 14.2656 1.91667 14.2656 2.0625L14.2734 2.39062C14.2734 4.23438 13.8333 7.59896 12.9531 12.4844C12.651 14.1458 12.2891 15.9193 11.8672 17.8047C10.8359 22.4141 9.65885 26.4193 8.33594 29.8203C9.82031 29.5911 11.2839 29.4766 12.7266 29.4766C14.4922 29.4766 16.1458 29.6016 17.6875 29.8516C21.0469 30.3828 23.6667 31.2214 25.5469 32.3672C26.5156 32.9557 27.1172 33.599 27.3516 34.2969C27.4036 34.5104 27.4297 34.6979 27.4297 34.8594C27.4297 34.9948 27.4115 35.1146 27.375 35.2188C27.3333 35.3594 27.2969 35.4635 27.2656 35.5312C27.1354 35.7917 26.9401 35.9219 26.6797 35.9219C26.5964 35.9219 26.513 35.9036 26.4297 35.8672C26.1745 35.7578 26.0469 35.5677 26.0469 35.2969C26.0469 35.1927 26.0755 35.0833 26.1328 34.9688L26.1719 34.8906C26.1823 34.8333 26.1875 34.7891 26.1875 34.7578C26.1875 34.5703 26.0677 34.3359 25.8281 34.0547C25.6198 33.8151 25.3255 33.5651 24.9453 33.3047C24.1745 32.7786 23.1562 32.2891 21.8906 31.8359C20.6302 31.3724 19.1823 30.9896 17.5469 30.6875C15.7917 30.3646 13.9688 30.2031 12.0781 30.2031C10.7552 30.2031 9.40365 30.3307 8.02344 30.5859C7.69531 31.3776 7.33073 32.1615 6.92969 32.9375C6.66406 33.4375 6.3724 33.9297 6.05469 34.4141C5.73698 34.8984 5.375 35.362 4.96875 35.8047C4.56771 36.2526 4.07552 36.6198 3.49219 36.9062C3.1276 37.0781 2.75 37.1641 2.35938 37.1641ZM2.30469 36.2578C2.57552 36.2578 2.84635 36.1953 3.11719 36.0703C3.54427 35.8568 3.9349 35.5521 4.28906 35.1562C4.98177 34.3646 5.57292 33.474 6.0625 32.4844C6.33333 31.9531 6.58594 31.4141 6.82031 30.8672L6.71094 30.8906C3.94531 31.6458 2.125 32.7422 1.25 34.1797C1.03125 34.5391 0.921875 34.8802 0.921875 35.2031C0.921875 35.6927 1.21875 36.0208 1.8125 36.1875C1.97917 36.2344 2.14323 36.2578 2.30469 36.2578ZM24.5078 27.2031C24.4349 27.2031 24.3594 27.1771 24.2812 27.125C24.0208 26.9635 23.7943 26.6458 23.6016 26.1719C23.3099 25.4115 23.1641 24.3359 23.1641 22.9453C23.1641 21.1745 23.3672 18.9922 23.7734 16.3984C22.8307 19.0026 21.776 21.0938 20.6094 22.6719C19.8333 23.6979 18.9479 24.3984 17.9531 24.7734L17.7578 24.8281C17.5339 24.8854 17.3047 24.9141 17.0703 24.9141C16.5391 24.9141 16.0807 24.7708 15.6953 24.4844C15.4193 24.25 15.2161 23.9766 15.0859 23.6641C14.9245 23.2734 14.8438 22.7943 14.8438 22.2266C14.8438 21.2943 15.0625 20.349 15.5 19.3906C15.9167 18.3906 16.5964 17.6068 17.5391 17.0391C17.7578 16.8984 18.0286 16.7995 18.3516 16.7422C18.3932 16.7318 18.4375 16.7266 18.4844 16.7266C18.6302 16.7266 18.7969 16.7708 18.9844 16.8594C19.0625 16.9167 19.1354 16.9792 19.2031 17.0469C19.3438 17.2396 19.4141 17.4479 19.4141 17.6719C19.4141 17.7865 19.3984 17.8906 19.3672 17.9844C19.2786 18.2969 19.099 18.599 18.8281 18.8906C18.2812 19.4688 17.7708 19.8958 17.2969 20.1719C16.7344 20.5208 16.276 20.724 15.9219 20.7812C15.724 21.3333 15.625 21.9115 15.625 22.5156C15.625 23.1771 15.7969 23.6484 16.1406 23.9297C16.4219 24.138 16.7448 24.2422 17.1094 24.2422C17.2344 24.2422 17.3776 24.2266 17.5391 24.1953C17.5703 24.1901 17.5911 24.1849 17.6016 24.1797C17.612 24.1745 17.6224 24.1719 17.6328 24.1719C18.5286 23.875 19.3464 23.2396 20.0859 22.2656C20.7786 21.3385 21.362 20.3464 21.8359 19.2891C22.3203 18.237 22.7474 17.1901 23.1172 16.1484C23.7109 14.4714 24.3646 12.3385 25.0781 9.75C25.224 9.15104 25.3646 8.59115 25.5 8.07031L25.5234 7.97656C25.0234 7.97656 24.3151 8.00521 23.3984 8.0625C21.5286 8.16146 20.1667 8.3125 19.3125 8.51562C19.0469 8.57812 18.8698 8.63542 18.7812 8.6875C18.6875 8.83854 18.5495 8.91406 18.3672 8.91406C18.2266 8.91406 18.112 8.85156 18.0234 8.72656C17.9609 8.64844 17.9297 8.5599 17.9297 8.46094C17.9401 8.34115 17.9792 8.23438 18.0469 8.14062C18.1406 8.02604 18.2422 7.94531 18.3516 7.89844C18.8099 7.6849 19.9141 7.52604 21.6641 7.42188C21.7005 7.41667 21.7396 7.41406 21.7812 7.41406C22.724 7.35156 23.6068 7.3099 24.4297 7.28906C25.1797 7.25781 25.6094 7.24219 25.7188 7.24219C25.9531 6.41406 26.2161 5.54948 26.5078 4.64844C26.5703 4.48698 26.6745 4.36979 26.8203 4.29688C26.8984 4.26042 26.9818 4.24219 27.0703 4.24219C27.3307 4.24219 27.5182 4.35417 27.6328 4.57812C27.6693 4.66146 27.6875 4.7474 27.6875 4.83594C27.6875 4.90365 27.6771 4.97135 27.6562 5.03906V5.05469C27.3542 5.92448 27.1172 6.64323 26.9453 7.21094C27.7005 7.19531 28.4635 7.1849 29.2344 7.17969C29.6562 7.17969 30.0755 7.17708 30.4922 7.17188L31.8984 7.16406C33.9401 7.16406 35.9844 7.21094 38.0312 7.30469C38.099 7.30469 38.1615 7.30729 38.2188 7.3125C39.3021 7.36458 39.974 7.46615 40.2344 7.61719C40.2396 7.6224 40.2448 7.6276 40.25 7.63281C40.2552 7.63281 40.263 7.63802 40.2734 7.64844C40.2891 7.65885 40.3021 7.66927 40.3125 7.67969C40.3281 7.6849 40.3385 7.69271 40.3438 7.70312C40.3542 7.71354 40.3672 7.72656 40.3828 7.74219C40.4922 7.85156 40.5495 7.99479 40.5547 8.17188C40.5547 8.3125 40.5052 8.44531 40.4062 8.57031C40.224 8.77344 40.0365 8.875 39.8438 8.875C39.8021 8.875 39.7318 8.86458 39.6328 8.84375C39.5339 8.82292 39.4375 8.74479 39.3438 8.60938C39.3177 8.5625 39.2969 8.51562 39.2812 8.46875C39.0521 8.41146 38.6693 8.34896 38.1328 8.28125C37.4661 8.19792 37.0052 8.15625 36.75 8.15625C35.7188 8.07812 34.5547 8.02083 33.2578 7.98438C32.0911 7.94271 30.888 7.92188 29.6484 7.92188C28.5547 7.92188 27.5807 7.92969 26.7266 7.94531C26.0807 10.1328 25.4609 12.7786 24.8672 15.8828C24.3047 18.888 24.0234 21.3906 24.0234 23.3906C24.0234 24.4792 24.1328 25.3099 24.3516 25.8828C24.4505 26.1276 24.5417 26.2917 24.625 26.375L24.75 26.4922C24.8594 26.5755 24.9141 26.6797 24.9141 26.8047C24.9141 26.888 24.8906 26.9661 24.8438 27.0391C24.7604 27.1484 24.6484 27.2031 24.5078 27.2031ZM39.6406 8.58594C39.6406 8.57552 39.6354 8.57031 39.625 8.57031C39.6198 8.57031 39.6146 8.56771 39.6094 8.5625H39.6016L39.6406 8.58594ZM16.4531 19.7188C17.0312 19.349 17.5729 18.8672 18.0781 18.2734C18.2031 18.1068 18.2917 17.9609 18.3438 17.8359C17.8125 18.0443 17.1823 18.6719 16.4531 19.7188ZM28.1719 24.3828C28.1042 24.3828 28.0547 24.3776 28.0234 24.3672C27.9922 24.362 27.9609 24.3594 27.9297 24.3594H27.9219L27.7812 24.3203C27.2188 24.1536 26.8307 23.7604 26.6172 23.1406C26.4766 22.7344 26.4062 22.2552 26.4062 21.7031C26.4062 21.2865 26.4557 20.7995 26.5547 20.2422C26.6745 19.6068 26.7917 19.1094 26.9062 18.75L27.0938 18.1875C27.151 18.0208 27.2552 17.901 27.4062 17.8281C27.4896 17.7865 27.5781 17.7656 27.6719 17.7656C27.7396 17.7656 27.8073 17.776 27.875 17.7969C28.0417 17.8594 28.1615 17.9661 28.2344 18.1172C28.276 18.2005 28.2969 18.2891 28.2969 18.3828C28.2969 18.4505 28.2865 18.5182 28.2656 18.5859L28.2031 18.7422L28.0781 19.1172C28.0156 19.237 27.8854 19.6901 27.6875 20.4766C27.5312 21.1328 27.4531 21.7109 27.4531 22.2109C27.4531 22.6641 27.5234 23.0182 27.6641 23.2734C27.7578 23.4141 27.888 23.5182 28.0547 23.5859C28.0651 23.5911 28.0781 23.5964 28.0938 23.6016C28.1094 23.6068 28.1745 23.6224 28.2891 23.6484H28.3828C28.6901 23.638 29.0208 23.5391 29.375 23.3516C29.9271 23.0599 30.5052 22.6172 31.1094 22.0234L31.1172 22.0156C31.737 21.4115 32.2708 20.8021 32.7188 20.1875C32.9375 19.8906 33.0495 19.7422 33.0547 19.7422C33.1484 19.6172 33.2656 19.5547 33.4062 19.5547C33.4948 19.5547 33.5781 19.5807 33.6562 19.6328C33.776 19.7214 33.8359 19.8411 33.8359 19.9922C33.8359 20.0859 33.7943 20.1875 33.7109 20.2969L33.1406 20.875C33.0052 21.0104 32.8542 21.1667 32.6875 21.3438C32.0938 21.9635 31.4245 22.5781 30.6797 23.1875C30.1224 23.6406 29.5964 23.9766 29.1016 24.1953C28.8203 24.3203 28.5104 24.3828 28.1719 24.3828ZM28.1719 17.1016L28.125 17.0938C28.0573 17.0625 28.0208 17.013 28.0156 16.9453L28.0391 16.5625C28.0703 16.0729 28.1667 15.526 28.3281 14.9219C28.3802 14.7396 28.4193 14.612 28.4453 14.5391C28.5339 14.2734 28.7109 14.1406 28.9766 14.1406C29.2005 14.1406 29.3646 14.2422 29.4688 14.4453C29.5156 14.5234 29.5391 14.6068 29.5391 14.6953C29.5391 14.8151 29.5 14.9297 29.4219 15.0391L29.2188 15.3203C28.8958 15.7891 28.6432 16.2396 28.4609 16.6719L28.3203 17C28.2943 17.0677 28.2448 17.1016 28.1719 17.1016ZM35.1641 23.5781H35.0781C34.6927 23.5781 34.3542 23.5052 34.0625 23.3594C33.9479 23.3177 33.7865 23.2135 33.5781 23.0469C33.5677 23.0365 33.5521 23.026 33.5312 23.0156C33.5104 23 33.4922 22.9792 33.4766 22.9531C33.2422 22.7188 33.0729 22.4453 32.9688 22.1328C32.8594 21.8203 32.8047 21.5078 32.8047 21.1953C32.8047 20.1224 33.1719 19.1328 33.9062 18.2266C34.4948 17.5026 35.1536 16.9661 35.8828 16.6172C36.263 16.4297 36.612 16.3359 36.9297 16.3359C37.2109 16.3359 37.4401 16.4193 37.6172 16.5859C37.7214 16.6849 37.7917 16.8125 37.8281 16.9688L37.8438 17.0469L37.8516 17.1562C37.8516 17.2604 37.8125 17.3594 37.7344 17.4531C37.6562 17.5469 37.5573 17.5938 37.4375 17.5938C37.2083 17.5938 37.0625 17.4922 37 17.2891C36.8698 17.2891 36.6536 17.3672 36.3516 17.5234C36.1016 17.6589 35.8385 17.8438 35.5625 18.0781C35.2865 18.3125 35.0156 18.5911 34.75 18.9141C34.4896 19.2318 34.2682 19.5885 34.0859 19.9844C33.8307 20.5 33.7031 21 33.7031 21.4844C33.7031 21.8438 33.8125 22.1615 34.0312 22.4375L34.0547 22.4688L34.2109 22.6094L34.3828 22.7266L34.5234 22.7969C34.7474 22.8854 34.9922 22.9297 35.2578 22.9297C35.6953 22.9297 36.1276 22.8516 36.5547 22.6953C37.3151 22.4297 38.0807 22.0208 38.8516 21.4688C39.4766 21 39.9453 20.599 40.2578 20.2656L40.7109 19.75C40.8047 19.6406 40.9193 19.5859 41.0547 19.5859C41.1536 19.5859 41.2474 19.6198 41.3359 19.6875C41.4453 19.7812 41.5 19.8958 41.5 20.0312C41.5 20.1562 41.4557 20.263 41.3672 20.3516L40.8047 20.8516C39.6224 21.8724 38.2708 22.6719 36.75 23.25C36.2656 23.4323 35.737 23.5417 35.1641 23.5781ZM42.3281 24.3828C42.2604 24.3828 42.2109 24.3776 42.1797 24.3672C42.1484 24.362 42.1172 24.3594 42.0859 24.3594H42.0781L41.9375 24.3203C41.375 24.1536 40.987 23.7604 40.7734 23.1406C40.6328 22.7344 40.5625 22.2552 40.5625 21.7031C40.5625 21.2865 40.612 20.7995 40.7109 20.2422C40.8307 19.6068 40.9479 19.1094 41.0625 18.75L41.25 18.1875C41.3073 18.0208 41.4115 17.901 41.5625 17.8281C41.6458 17.7865 41.7344 17.7656 41.8281 17.7656C41.8958 17.7656 41.9635 17.776 42.0312 17.7969C42.1979 17.8594 42.3177 17.9661 42.3906 18.1172C42.4323 18.2005 42.4531 18.2891 42.4531 18.3828C42.4531 18.4505 42.4427 18.5182 42.4219 18.5859L42.3594 18.7422L42.2344 19.1172C42.1719 19.237 42.0417 19.6901 41.8438 20.4766C41.6875 21.1328 41.6094 21.7109 41.6094 22.2109C41.6094 22.6641 41.6797 23.0182 41.8203 23.2734C41.9141 23.4141 42.0443 23.5182 42.2109 23.5859C42.2214 23.5911 42.2344 23.5964 42.25 23.6016C42.2656 23.6068 42.3307 23.6224 42.4453 23.6484H42.5391C42.8464 23.638 43.1771 23.5391 43.5312 23.3516C44.0833 23.0599 44.6615 22.6172 45.2656 22.0234L45.2734 22.0156C45.8932 21.4115 46.4271 20.8021 46.875 20.1875C47.0938 19.8906 47.2057 19.7422 47.2109 19.7422C47.3047 19.6172 47.4219 19.5547 47.5625 19.5547C47.651 19.5547 47.7344 19.5807 47.8125 19.6328C47.9323 19.7214 47.9922 19.8411 47.9922 19.9922C47.9922 20.0859 47.9505 20.1875 47.8672 20.2969L47.2969 20.875C47.1615 21.0104 47.0104 21.1667 46.8438 21.3438C46.25 21.9635 45.5807 22.5781 44.8359 23.1875C44.2786 23.6406 43.7526 23.9766 43.2578 24.1953C42.9766 24.3203 42.6667 24.3828 42.3281 24.3828ZM42.3281 17.1016L42.2812 17.0938C42.2135 17.0625 42.1771 17.013 42.1719 16.9453L42.1953 16.5625C42.2266 16.0729 42.3229 15.526 42.4844 14.9219C42.5365 14.7396 42.5755 14.612 42.6016 14.5391C42.6901 14.2734 42.8672 14.1406 43.1328 14.1406C43.3568 14.1406 43.5208 14.2422 43.625 14.4453C43.6719 14.5234 43.6953 14.6068 43.6953 14.6953C43.6953 14.8151 43.6562 14.9297 43.5781 15.0391L43.375 15.3203C43.0521 15.7891 42.7995 16.2396 42.6172 16.6719L42.4766 17C42.4505 17.0677 42.401 17.1016 42.3281 17.1016ZM47.2188 23.375C47.1042 23.375 47.0078 23.3594 46.9297 23.3281C46.737 23.2604 46.5964 23.1302 46.5078 22.9375C46.4193 22.7448 46.375 22.4896 46.375 22.1719C46.375 21.9844 46.3932 21.8073 46.4297 21.6406C46.5391 21.0677 46.7422 20.5052 47.0391 19.9531C47.1797 19.7031 47.3464 19.4531 47.5391 19.2031C47.8984 18.7292 48.3646 18.3385 48.9375 18.0312C49.224 17.8698 49.5599 17.7734 49.9453 17.7422H50.0078C50.1901 17.7422 50.388 17.7995 50.6016 17.9141C50.7995 18.0495 50.9219 18.2318 50.9688 18.4609L50.9766 18.6172C50.9766 18.763 50.9349 18.8802 50.8516 18.9688C50.7682 19.0521 50.6615 19.0964 50.5312 19.1016C50.4062 19.1016 50.2995 19.0599 50.2109 18.9766C50.1276 18.8932 50.0807 18.7865 50.0703 18.6562L50.0312 18.6484C49.8646 18.6484 49.6667 18.7266 49.4375 18.8828C49.0938 19.1589 48.776 19.4922 48.4844 19.8828L48.2422 20.2188C48.0651 20.4583 47.8776 20.7812 47.6797 21.1875C47.4245 21.7083 47.2969 22.1536 47.2969 22.5234V22.5469C47.4531 22.5469 47.6719 22.4531 47.9531 22.2656C48.6667 21.7917 49.4167 21.0495 50.2031 20.0391C50.5833 19.5547 50.8854 19.1094 51.1094 18.7031L51.1953 18.6172C51.3047 18.513 51.4297 18.4609 51.5703 18.4609C51.6953 18.4609 51.8099 18.5104 51.9141 18.6094C52.0182 18.7031 52.0703 18.8203 52.0703 18.9609C52.0703 19.0443 52.0469 19.1276 52 19.2109C51.9167 19.362 51.8411 19.5286 51.7734 19.7109C51.5599 20.2109 51.4531 20.6797 51.4531 21.1172C51.4531 21.362 51.4974 21.5573 51.5859 21.7031C51.7005 21.8906 51.9297 21.9844 52.2734 21.9844C52.4505 21.9844 52.6406 21.9583 52.8438 21.9062C53.4531 21.7448 54.1432 21.4297 54.9141 20.9609C55.5182 20.6068 56.1641 20.1667 56.8516 19.6406C56.9401 19.5729 57.0312 19.5391 57.125 19.5391C57.1458 19.5391 57.1927 19.5443 57.2656 19.5547C57.3385 19.5651 57.4167 19.6198 57.5 19.7188C57.5677 19.8073 57.6016 19.901 57.6016 20C57.6016 20.0208 57.5964 20.0677 57.5859 20.1406C57.5755 20.2083 57.5182 20.2839 57.4141 20.3672C57.4036 20.3776 57.388 20.388 57.3672 20.3984C56.6849 20.8151 55.9896 21.2188 55.2812 21.6094C53.9271 22.3125 52.9115 22.6641 52.2344 22.6641C51.6771 22.6641 51.2656 22.4688 51 22.0781C50.8542 21.849 50.7682 21.6172 50.7422 21.3828C50.7161 21.2005 50.7031 21.0234 50.7031 20.8516L50.7109 20.6328C50.3672 21.013 50.013 21.3854 49.6484 21.75C48.8203 22.6094 48.112 23.138 47.5234 23.3359C47.4349 23.362 47.3333 23.375 47.2188 23.375ZM84.9844 36.1719C84.8281 36.1719 84.6953 36.1276 84.5859 36.0391C84.4818 35.9557 84.4141 35.875 84.3828 35.7969C84.3203 35.6562 84.2865 35.5365 84.2812 35.4375C84.276 35.3385 84.2734 35.2292 84.2734 35.1094C84.2734 34.2344 84.7292 31.6589 85.6406 27.3828C86.4062 23.6797 87.0234 20.5365 87.4922 17.9531C88.2005 14.026 88.6224 10.6354 88.7578 7.78125C88.7734 7.44792 88.7812 7.11198 88.7812 6.77344C88.7812 3.26823 88.1042 1.51562 86.75 1.51562C86.5156 1.51562 86.2734 1.5651 86.0234 1.66406C85.3359 1.96094 84.6276 2.58333 83.8984 3.53125C83.2839 4.33854 82.7292 5.20312 82.2344 6.125C81.1875 8.06771 80.2396 10.2083 79.3906 12.5469C79.4427 13.0521 79.4714 13.5573 79.4766 14.0625C79.4714 15.2448 79.3724 16.4115 79.1797 17.5625C78.9089 19.2865 78.4844 20.9766 77.9062 22.6328C77.6771 23.3047 77.4271 23.849 77.1562 24.2656C77.0104 24.5052 76.8203 24.6354 76.5859 24.6562C76.3828 24.6562 76.2344 24.5729 76.1406 24.4062C76.0365 24.1927 75.9844 23.8958 75.9844 23.5156C75.9844 23.401 75.9896 23.2891 76 23.1797C76.0417 22.5911 76.1172 22.0156 76.2266 21.4531C76.6641 19.2031 77.2266 17.0182 77.9141 14.8984C78.0911 14.3411 78.2734 13.7865 78.4609 13.2344C78.4245 12.3906 78.2865 11.5833 78.0469 10.8125C77.6042 9.41667 76.7604 8.71875 75.5156 8.71875C74.8021 8.71875 74.0208 8.95052 73.1719 9.41406C72.0938 10.0286 71.0547 10.8672 70.0547 11.9297C70.0286 14.4089 69.8516 16.9922 69.5234 19.6797C69.0391 23.612 68.2839 27.0052 67.2578 29.8594C66.9349 30.7552 66.5 31.6302 65.9531 32.4844C65.6771 32.9167 65.3177 33.3073 64.875 33.6562C64.4583 33.9792 64.0052 34.1406 63.5156 34.1406C63.1458 34.1406 62.7969 34.0495 62.4688 33.8672C62.1458 33.6849 61.8828 33.4479 61.6797 33.1562C61.3516 32.6562 61.151 32.1328 61.0781 31.5859C61.0156 31.1901 60.9844 30.7995 60.9844 30.4141C60.9844 29.8099 61.0443 29.1354 61.1641 28.3906C61.4818 26.5104 62.0938 24.4583 63 22.2344C64.5781 18.3698 66.5703 14.9609 68.9766 12.0078C68.9766 10.5078 68.9193 9.16146 68.8047 7.96875C68.612 5.96354 68.3073 4.50781 67.8906 3.60156C67.6458 3.10156 67.4349 2.80729 67.2578 2.71875L67.2422 2.70312L67.125 2.64062C66.9062 2.52604 66.7969 2.34896 66.7969 2.10938C66.7969 2.01562 66.8177 1.92448 66.8594 1.83594C66.9792 1.61719 67.1562 1.50781 67.3906 1.50781C67.4948 1.50781 67.6198 1.54688 67.7656 1.625C68.2292 1.88021 68.6276 2.3776 68.9609 3.11719C69.6536 4.73177 70.0182 7.29167 70.0547 10.7969C70.8307 9.96354 71.7214 9.23698 72.7266 8.61719C73.2422 8.30469 73.8047 8.06771 74.4141 7.90625C74.7786 7.80729 75.151 7.75781 75.5312 7.75781C76.5729 7.75781 77.4141 8.11719 78.0547 8.83594C78.4818 9.35156 78.7891 9.90625 78.9766 10.5C79.0547 10.75 79.1224 11 79.1797 11.25C79.9609 9.16667 80.763 7.34115 81.5859 5.77344C82.9505 3.16927 84.3203 1.53906 85.6953 0.882812C86.0286 0.736979 86.3724 0.664062 86.7266 0.664062C87.3464 0.664062 87.8594 0.856771 88.2656 1.24219C88.7969 1.75781 89.1589 2.48698 89.3516 3.42969C89.5651 4.40885 89.6719 5.59115 89.6719 6.97656C89.6719 7.2526 89.6667 7.52865 89.6562 7.80469C89.5833 9.6901 89.4323 11.4922 89.2031 13.2109C88.7396 16.6641 88.2318 19.7734 87.6797 22.5391C87.3203 24.3984 86.9844 26.0859 86.6719 27.6016L86.2656 29.6641C85.6771 32.5703 85.375 34.3932 85.3594 35.1328C85.5312 35.2318 85.6172 35.3854 85.6172 35.5938C85.6172 35.625 85.6094 35.6823 85.5938 35.7656C85.5781 35.8542 85.5104 35.9401 85.3906 36.0234C85.2708 36.1068 85.1354 36.1562 84.9844 36.1719ZM76.6328 23.9219L76.6406 23.9062C77.0417 23.2188 77.401 22.1797 77.7188 20.7891C78.1354 18.9609 78.3854 17.1146 78.4688 15.25C77.7969 17.3073 77.2526 19.4115 76.8359 21.5625C76.6797 22.3802 76.6016 23.0286 76.6016 23.5078C76.6016 23.6536 76.612 23.7917 76.6328 23.9219ZM63.5078 33.2891C64.0964 33.2891 64.6719 32.8594 65.2344 32C65.7188 31.2292 66.112 30.4089 66.4141 29.5391C67.0182 27.8151 67.4792 26.1094 67.7969 24.4219C68.5104 20.5729 68.8984 16.8255 68.9609 13.1797C68.1016 14.2161 67.2917 15.3776 66.5312 16.6641C65.3958 18.5599 64.4323 20.5026 63.6406 22.4922C62.7812 24.6484 62.2083 26.6536 61.9219 28.5078C61.8281 29.0703 61.7812 29.6198 61.7812 30.1562C61.7812 30.5938 61.8125 31.0234 61.875 31.4453C61.9531 31.9193 62.1094 32.3281 62.3438 32.6719C62.4688 32.8385 62.6094 32.9714 62.7656 33.0703L63.0391 33.2031C63.1849 33.2604 63.3411 33.2891 63.5078 33.2891ZM90.8906 23.375C90.776 23.375 90.6797 23.3594 90.6016 23.3281C90.4089 23.2604 90.2682 23.1302 90.1797 22.9375C90.0911 22.7448 90.0469 22.4896 90.0469 22.1719C90.0469 21.9844 90.0651 21.8073 90.1016 21.6406C90.2109 21.0677 90.4141 20.5052 90.7109 19.9531C90.8516 19.7031 91.0182 19.4531 91.2109 19.2031C91.5703 18.7292 92.0365 18.3385 92.6094 18.0312C92.8958 17.8698 93.2318 17.7734 93.6172 17.7422H93.6797C93.862 17.7422 94.0599 17.7995 94.2734 17.9141C94.4714 18.0495 94.5938 18.2318 94.6406 18.4609L94.6484 18.6172C94.6484 18.763 94.6068 18.8802 94.5234 18.9688C94.4401 19.0521 94.3333 19.0964 94.2031 19.1016C94.0781 19.1016 93.9714 19.0599 93.8828 18.9766C93.7995 18.8932 93.7526 18.7865 93.7422 18.6562L93.7031 18.6484C93.5365 18.6484 93.3385 18.7266 93.1094 18.8828C92.7656 19.1589 92.4479 19.4922 92.1562 19.8828L91.9141 20.2188C91.737 20.4583 91.5495 20.7812 91.3516 21.1875C91.0964 21.7083 90.9688 22.1536 90.9688 22.5234V22.5469C91.125 22.5469 91.3438 22.4531 91.625 22.2656C92.3385 21.7917 93.0885 21.0495 93.875 20.0391C94.2552 19.5547 94.5573 19.1094 94.7812 18.7031L94.8672 18.6172C94.9766 18.513 95.1016 18.4609 95.2422 18.4609C95.3672 18.4609 95.4818 18.5104 95.5859 18.6094C95.6901 18.7031 95.7422 18.8203 95.7422 18.9609C95.7422 19.0443 95.7188 19.1276 95.6719 19.2109C95.5885 19.362 95.513 19.5286 95.4453 19.7109C95.2318 20.2109 95.125 20.6797 95.125 21.1172C95.125 21.362 95.1693 21.5573 95.2578 21.7031C95.3724 21.8906 95.6016 21.9844 95.9453 21.9844C96.1224 21.9844 96.3125 21.9583 96.5156 21.9062C97.125 21.7448 97.8151 21.4297 98.5859 20.9609C99.1901 20.6068 99.8359 20.1667 100.523 19.6406C100.612 19.5729 100.703 19.5391 100.797 19.5391C100.818 19.5391 100.865 19.5443 100.938 19.5547C101.01 19.5651 101.089 19.6198 101.172 19.7188C101.24 19.8073 101.273 19.901 101.273 20C101.273 20.0208 101.268 20.0677 101.258 20.1406C101.247 20.2083 101.19 20.2839 101.086 20.3672C101.076 20.3776 101.06 20.388 101.039 20.3984C100.357 20.8151 99.6615 21.2188 98.9531 21.6094C97.599 22.3125 96.5833 22.6641 95.9062 22.6641C95.349 22.6641 94.9375 22.4688 94.6719 22.0781C94.526 21.849 94.4401 21.6172 94.4141 21.3828C94.388 21.2005 94.375 21.0234 94.375 20.8516L94.3828 20.6328C94.0391 21.013 93.6849 21.3854 93.3203 21.75C92.4922 22.6094 91.7839 23.138 91.1953 23.3359C91.1068 23.362 91.0052 23.375 90.8906 23.375ZM100.141 26.5391C99.9427 26.5391 99.7969 26.4583 99.7031 26.2969C99.651 26.2188 99.625 26.1328 99.625 26.0391C99.625 25.9036 99.7891 24.8854 100.117 22.9844C100.487 20.8333 100.672 19.5182 100.672 19.0391C100.562 18.9974 100.469 18.9245 100.391 18.8203C100.307 18.6953 100.266 18.5651 100.266 18.4297C100.266 18.3984 100.273 18.3307 100.289 18.2266C100.305 18.1172 100.388 18.0052 100.539 17.8906C100.576 17.8646 100.615 17.8411 100.656 17.8203C100.839 17.7474 100.982 17.7083 101.086 17.7031C101.242 17.7031 101.383 17.7422 101.508 17.8203C101.586 17.8776 101.664 17.9583 101.742 18.0625C101.841 18.2448 101.891 18.4844 101.891 18.7812C101.891 19.276 101.732 20.3047 101.414 21.8672C101.43 21.8307 101.448 21.7969 101.469 21.7656C102.693 19.1562 103.846 17.4349 104.93 16.6016C105.247 16.3672 105.536 16.25 105.797 16.25C105.984 16.25 106.143 16.3047 106.273 16.4141C106.477 16.5807 106.578 16.8177 106.578 17.125C106.578 17.401 106.555 17.651 106.508 17.875C106.477 18.0625 106.432 18.2812 106.375 18.5312C106.146 19.4115 106.031 20.0234 106.031 20.3672C106.031 20.6901 106.083 20.9245 106.188 21.0703C106.297 21.2161 106.5 21.2891 106.797 21.2891C107.161 21.2682 107.536 21.1693 107.922 20.9922C108.677 20.638 109.383 20.1823 110.039 19.625C110.133 19.5573 110.232 19.5234 110.336 19.5234C110.346 19.5234 110.385 19.526 110.453 19.5312C110.521 19.5365 110.591 19.5859 110.664 19.6797C110.742 19.7734 110.781 19.8724 110.781 19.9766C110.781 19.987 110.779 20.026 110.773 20.0938C110.768 20.1615 110.716 20.237 110.617 20.3203C110.607 20.3359 110.594 20.3464 110.578 20.3516C109.026 21.4193 107.74 21.9688 106.719 22C106.484 22 106.24 21.9375 105.984 21.8125C105.927 21.7812 105.88 21.75 105.844 21.7188C105.438 21.401 105.234 20.875 105.234 20.1406C105.234 19.6302 105.307 19.0286 105.453 18.3359C105.557 17.8568 105.62 17.474 105.641 17.1875C105.594 17.1875 105.505 17.2266 105.375 17.3047C105.052 17.4974 104.753 17.7552 104.477 18.0781C103.732 18.9531 103.062 20.0443 102.469 21.3516C101.745 22.9089 101.128 24.5234 100.617 26.1953C100.565 26.3307 100.479 26.4271 100.359 26.4844C100.286 26.5208 100.214 26.5391 100.141 26.5391ZM112.273 27.2734H112.164C111.951 27.2734 111.74 27.2292 111.531 27.1406C111.479 27.125 111.448 27.112 111.438 27.1016C111.427 27.0964 111.417 27.0911 111.406 27.0859C111.396 27.0807 111.383 27.0729 111.367 27.0625C110.596 26.5781 110.146 25.5964 110.016 24.1172C109.969 23.5859 109.945 23.0573 109.945 22.5312C109.945 22 109.969 21.4714 110.016 20.9453C110.339 17.1953 111.195 12.862 112.586 7.94531C112.112 7.94531 111.419 7.97396 110.508 8.03125C108.638 8.13021 107.271 8.28125 106.406 8.48438C106.146 8.54688 105.971 8.60417 105.883 8.65625C105.789 8.80729 105.651 8.88281 105.469 8.88281C105.328 8.88281 105.211 8.82031 105.117 8.69531C105.06 8.61719 105.031 8.52865 105.031 8.42969C105.042 8.3099 105.081 8.20312 105.148 8.10938C105.242 7.99479 105.344 7.91406 105.453 7.86719C106.109 7.5651 108.26 7.35677 111.906 7.24219C112.385 7.23177 112.682 7.22135 112.797 7.21094C112.964 6.63281 113.234 5.76823 113.609 4.61719C113.667 4.45573 113.768 4.33854 113.914 4.26562C113.997 4.22396 114.086 4.20312 114.18 4.20312C114.247 4.20312 114.315 4.21354 114.383 4.23438C114.544 4.29167 114.659 4.39323 114.727 4.53906C114.768 4.6224 114.789 4.71094 114.789 4.80469C114.789 4.8724 114.779 4.9401 114.758 5.00781C114.669 5.2526 114.417 5.97656 114 7.17969C114.885 7.16406 116.555 7.14844 119.008 7.13281C121.023 7.13281 123.128 7.18229 125.32 7.28125C126.018 7.31771 126.536 7.36719 126.875 7.42969C127.125 7.46615 127.307 7.54167 127.422 7.65625C127.438 7.65625 127.477 7.69531 127.539 7.77344C127.612 7.88281 127.651 8.00521 127.656 8.14062C127.656 8.28646 127.607 8.41927 127.508 8.53906C127.326 8.74219 127.138 8.84375 126.945 8.84375C126.904 8.84375 126.833 8.83333 126.734 8.8125C126.635 8.79167 126.539 8.71354 126.445 8.57812C126.419 8.53125 126.398 8.48438 126.383 8.4375C126.154 8.38021 125.771 8.31771 125.234 8.25C124.568 8.16667 124.107 8.125 123.852 8.125C122.82 8.04688 121.654 7.98958 120.352 7.95312C119.185 7.91146 117.984 7.89062 116.75 7.89062C115.63 7.89062 114.635 7.89844 113.766 7.91406C112.234 12.6745 111.258 17.0417 110.836 21.0156C110.779 21.6042 110.75 22.1849 110.75 22.7578C110.75 23.1901 110.766 23.6172 110.797 24.0391C110.901 25.2682 111.219 26.0625 111.75 26.4219C111.891 26.5 112.044 26.5391 112.211 26.5391C112.393 26.5391 112.591 26.4922 112.805 26.3984C113.19 26.2266 113.552 26.0078 113.891 25.7422C115.016 24.8411 116.052 23.737 117 22.4297C117.646 21.5286 118.104 20.7839 118.375 20.1953L118.531 19.8594C118.604 19.6667 118.74 19.5703 118.938 19.5703C118.99 19.5703 119.044 19.5807 119.102 19.6016C119.294 19.6745 119.391 19.8099 119.391 20.0078C119.391 20.0755 119.37 20.1536 119.328 20.2422C119.328 20.2995 119.06 20.7161 118.523 21.4922C117.081 23.5859 115.682 25.1875 114.328 26.2969C113.969 26.5938 113.552 26.8516 113.078 27.0703C112.839 27.1797 112.57 27.2474 112.273 27.2734ZM120.078 24.3828C120.01 24.3828 119.961 24.3776 119.93 24.3672C119.898 24.362 119.867 24.3594 119.836 24.3594H119.828L119.688 24.3203C119.125 24.1536 118.737 23.7604 118.523 23.1406C118.383 22.7344 118.312 22.2552 118.312 21.7031C118.312 21.2865 118.362 20.7995 118.461 20.2422C118.581 19.6068 118.698 19.1094 118.812 18.75L119 18.1875C119.057 18.0208 119.161 17.901 119.312 17.8281C119.396 17.7865 119.484 17.7656 119.578 17.7656C119.646 17.7656 119.714 17.776 119.781 17.7969C119.948 17.8594 120.068 17.9661 120.141 18.1172C120.182 18.2005 120.203 18.2891 120.203 18.3828C120.203 18.4505 120.193 18.5182 120.172 18.5859L120.109 18.7422L119.984 19.1172C119.922 19.237 119.792 19.6901 119.594 20.4766C119.438 21.1328 119.359 21.7109 119.359 22.2109C119.359 22.6641 119.43 23.0182 119.57 23.2734C119.664 23.4141 119.794 23.5182 119.961 23.5859C119.971 23.5911 119.984 23.5964 120 23.6016C120.016 23.6068 120.081 23.6224 120.195 23.6484H120.289C120.596 23.638 120.927 23.5391 121.281 23.3516C121.833 23.0599 122.411 22.6172 123.016 22.0234L123.023 22.0156C123.643 21.4115 124.177 20.8021 124.625 20.1875C124.844 19.8906 124.956 19.7422 124.961 19.7422C125.055 19.6172 125.172 19.5547 125.312 19.5547C125.401 19.5547 125.484 19.5807 125.562 19.6328C125.682 19.7214 125.742 19.8411 125.742 19.9922C125.742 20.0859 125.701 20.1875 125.617 20.2969L125.047 20.875C124.911 21.0104 124.76 21.1667 124.594 21.3438C124 21.9635 123.331 22.5781 122.586 23.1875C122.029 23.6406 121.503 23.9766 121.008 24.1953C120.727 24.3203 120.417 24.3828 120.078 24.3828ZM120.078 17.1016L120.031 17.0938C119.964 17.0625 119.927 17.013 119.922 16.9453L119.945 16.5625C119.977 16.0729 120.073 15.526 120.234 14.9219C120.286 14.7396 120.326 14.612 120.352 14.5391C120.44 14.2734 120.617 14.1406 120.883 14.1406C121.107 14.1406 121.271 14.2422 121.375 14.4453C121.422 14.5234 121.445 14.6068 121.445 14.6953C121.445 14.8151 121.406 14.9297 121.328 15.0391L121.125 15.3203C120.802 15.7891 120.549 16.2396 120.367 16.6719L120.227 17C120.201 17.0677 120.151 17.1016 120.078 17.1016ZM124.617 24.5156C124.539 24.5156 124.461 24.4974 124.383 24.4609C124.201 24.3516 124.109 24.1979 124.109 24V23.9375C124.125 23.8542 124.138 23.7682 124.148 23.6797C124.326 22.2943 124.62 20.9036 125.031 19.5078C125.203 18.9505 125.289 18.5938 125.289 18.4375C125.284 18.4167 125.281 18.3281 125.281 18.1719C125.281 17.9948 125.339 17.8411 125.453 17.7109C125.583 17.5651 125.745 17.4922 125.938 17.4922C126.115 17.4922 126.271 17.5547 126.406 17.6797C126.542 17.7995 126.609 17.9661 126.609 18.1797C126.609 18.2214 126.607 18.2604 126.602 18.2969C126.518 18.6458 126.404 19.0312 126.258 19.4531C126.117 19.8021 125.93 20.3958 125.695 21.2344L125.68 21.2812C125.742 21.1771 125.997 20.7812 126.445 20.0938C127.555 18.4323 128.451 17.2839 129.133 16.6484C129.549 16.2526 129.974 16.0234 130.406 15.9609L130.508 15.9531C130.617 15.9531 130.734 15.9818 130.859 16.0391C131.146 16.1953 131.289 16.4818 131.289 16.8984C131.289 17.1745 131.229 17.5182 131.109 17.9297C130.995 18.2943 130.839 18.7474 130.641 19.2891C130.349 20.0807 130.203 20.6875 130.203 21.1094C130.203 21.3281 130.24 21.5234 130.312 21.6953C130.385 21.8307 130.5 21.9427 130.656 22.0312C130.672 22.0365 130.685 22.0443 130.695 22.0547C130.857 22.1276 131.021 22.1641 131.188 22.1641C131.583 22.138 131.99 22.0234 132.406 21.8203C133.224 21.4349 134.404 20.6823 135.945 19.5625C136.029 19.5052 136.115 19.4766 136.203 19.4766C136.229 19.4766 136.279 19.4818 136.352 19.4922C136.424 19.5026 136.5 19.5599 136.578 19.6641C136.635 19.7474 136.664 19.8333 136.664 19.9219C136.664 20.0729 136.599 20.1979 136.469 20.2969C134.885 21.375 133.633 22.1146 132.711 22.5156C132.258 22.7292 131.75 22.849 131.188 22.875C131.052 22.875 130.891 22.8568 130.703 22.8203C130.651 22.8099 130.62 22.8021 130.609 22.7969C130.599 22.7917 130.589 22.7865 130.578 22.7812C130.51 22.7656 130.443 22.7422 130.375 22.7109L130.336 22.7031C130.055 22.5833 129.82 22.3854 129.633 22.1094C129.419 21.7552 129.312 21.3333 129.312 20.8438C129.312 20.7083 129.32 20.5755 129.336 20.4453C129.398 19.9297 129.5 19.4375 129.641 18.9688C129.786 18.5 129.938 18.0495 130.094 17.6172C130.24 17.263 130.32 17.0052 130.336 16.8438C130.279 16.849 130.216 16.8646 130.148 16.8906C129.747 17.0729 129.255 17.5052 128.672 18.1875C128.13 18.8438 127.594 19.612 127.062 20.4922C126.318 21.7161 125.654 22.9635 125.07 24.2344C124.966 24.4219 124.815 24.5156 124.617 24.5156ZM137.492 29.0859C137.159 29.0859 136.898 28.9844 136.711 28.7812C136.544 28.5781 136.461 28.3151 136.461 27.9922C136.461 27.7474 136.505 27.5104 136.594 27.2812C136.724 26.8698 136.961 26.4401 137.305 25.9922C138.148 24.8932 139.37 23.7839 140.969 22.6641C140.677 22.5495 140.076 22.4375 139.164 22.3281C138.695 22.2812 138.216 22.2083 137.727 22.1094C137.07 21.9792 136.568 21.7214 136.219 21.3359C135.969 21.0339 135.844 20.6745 135.844 20.2578C135.844 20.1224 135.859 19.9818 135.891 19.8359C135.901 19.7891 135.909 19.75 135.914 19.7188C135.919 19.6823 135.93 19.638 135.945 19.5859C136.195 18.6797 136.63 17.8464 137.25 17.0859C138.026 16.1536 138.859 15.4141 139.75 14.8672C140.5 14.3932 141.185 14.0859 141.805 13.9453C141.935 13.9193 142.039 13.9062 142.117 13.9062L142.164 13.8984C142.227 13.8984 142.284 13.9036 142.336 13.9141C142.451 13.9349 142.557 14.0052 142.656 14.125C142.719 14.2031 142.75 14.3021 142.75 14.4219C142.75 14.5781 142.706 14.7005 142.617 14.7891C142.602 14.7995 142.586 14.8151 142.57 14.8359C142.555 14.8516 142.536 14.8646 142.516 14.875C142.5 14.8854 142.49 14.8932 142.484 14.8984L142.422 14.9375L142.32 14.9844C141.503 15.3281 140.865 15.651 140.406 15.9531C139.87 16.3333 139.565 16.651 139.492 16.9062L139.484 16.9219V16.9453L139.469 16.9922C139.427 17.138 139.344 17.2448 139.219 17.3125C139.141 17.3594 139.055 17.3828 138.961 17.3828C138.768 17.3828 138.622 17.3073 138.523 17.1562C137.951 17.7292 137.497 18.3672 137.164 19.0703C137.018 19.3776 136.919 19.651 136.867 19.8906L136.852 19.9688C136.826 20.0469 136.812 20.1432 136.812 20.2578C136.812 20.3411 136.82 20.4193 136.836 20.4922C136.904 20.8047 137.271 21.0391 137.938 21.1953C138.37 21.2839 138.99 21.3776 139.797 21.4766C140.125 21.5234 140.456 21.5859 140.789 21.6641C141.128 21.737 141.469 21.875 141.812 22.0781C143.047 21.2396 144.154 20.5703 145.133 20.0703C145.909 19.6745 146.482 19.4531 146.852 19.4062C146.961 19.3958 147.042 19.3906 147.094 19.3906C147.229 19.3906 147.349 19.4375 147.453 19.5312C147.557 19.625 147.609 19.7474 147.609 19.8984C147.609 20.0286 147.562 20.1458 147.469 20.25C147.375 20.3542 147.247 20.4062 147.086 20.4062L147.016 20.3984H146.898C146.607 20.3984 146.125 20.526 145.453 20.7812C144.49 21.1615 143.424 21.737 142.258 22.5078L142.32 22.5859C142.471 22.8359 142.547 23.1146 142.547 23.4219C142.547 23.7188 142.484 24.0417 142.359 24.3906C142.12 25.0729 141.789 25.6901 141.367 26.2422C140.461 27.4609 139.432 28.3411 138.281 28.8828C137.979 29.0182 137.716 29.0859 137.492 29.0859ZM137.438 28.2812C137.578 28.2812 137.753 28.2318 137.961 28.1328C138.477 27.888 138.966 27.5521 139.43 27.125C140.466 26.1979 141.164 25.1953 141.523 24.1172C141.56 24.0026 141.589 23.901 141.609 23.8125C141.641 23.6562 141.656 23.5339 141.656 23.4453C141.656 23.2578 141.612 23.1146 141.523 23.0156C140.69 23.5938 139.849 24.3073 139 25.1562C137.969 26.1771 137.391 27.0885 137.266 27.8906L137.258 28.0078C137.258 28.0859 137.266 28.1484 137.281 28.1953C137.292 28.2109 137.297 28.2266 137.297 28.2422C137.302 28.2578 137.318 28.2656 137.344 28.2656C137.359 28.276 137.391 28.2812 137.438 28.2812Z" fill="black"/>
</svg>
