<svg width="30" height="6" viewBox="0 0 30 6" fill="none" xmlns="http://www.w3.org/2000/svg">
<path fill-rule="evenodd" clip-rule="evenodd" d="M1.67499 0.0291939C-0.00566297 0.14419 -0.195933 0.305162 0.279722 1.15613C0.802937 2.0991 1.89696 2.32916 10.3953 2.72015C0.580976 2.99611 -0.322782 3.3181 0.073597 4.39907C0.580962 5.75602 3.83127 5.61802 19.6547 5.66402C24.3954 5.68702 27.0273 6.07801 28.375 5.98601C30.2459 5.84802 29.7861 4.79005 29.0092 4.30707L29.4373 4.19207C30.563 3.89308 29.8813 2.00717 28.4384 1.45519C27.17 0.972208 19.8767 0.466179 12.8529 0.374182C3.56175 0.282185 3.59346 -0.108801 1.67499 0.0291939Z" fill="#446953"/>
</svg>
