<svg width="24" height="24" viewBox="0 0 24 24" fill="none" xmlns="http://www.w3.org/2000/svg">
<g clip-path="url(#clip0_1536_1706)">
<mask id="mask0_1536_1706" style="mask-type:luminance" maskUnits="userSpaceOnUse" x="0" y="0" width="24" height="24">
<path d="M0 0H24V24H0V0Z" fill="white"/>
</mask>
<g mask="url(#mask0_1536_1706)">
<path d="M2.719 12.006H1.5M22.5 12.006H21.293M12.006 2.719V1.5M12.006 22.5V21.293M5.435 5.435L4.576 4.576M19.424 19.424L18.564 18.564M18.565 5.435L19.423 4.576M4.576 19.424L5.436 18.564M12 17.885C12.7728 17.885 13.5381 17.7328 14.2521 17.437C14.9661 17.1413 15.6149 16.7078 16.1613 16.1613C16.7078 15.6149 17.1413 14.9661 17.437 14.2521C17.7328 13.5381 17.885 12.7728 17.885 12C17.885 11.2272 17.7328 10.4619 17.437 9.74791C17.1413 9.03391 16.7078 8.38515 16.1613 7.83868C15.6149 7.2922 14.9661 6.85872 14.2521 6.56297C13.5381 6.26722 12.7728 6.115 12 6.115C10.4392 6.115 8.94233 6.73502 7.83868 7.83868C6.73502 8.94233 6.115 10.4392 6.115 12C6.115 13.5608 6.73502 15.0577 7.83868 16.1613C8.94233 17.265 10.4392 17.885 12 17.885Z" stroke="white" stroke-width="1.5" stroke-linecap="round" stroke-linejoin="round"/>
</g>
</g>
<defs>
<clipPath id="clip0_1536_1706">
<rect width="24" height="24" fill="white"/>
</clipPath>
</defs>
</svg>
